<svg width="140" height="26" fill="none" xmlns="http://www.w3.org/2000/svg"><path d="M14.828 6.797c2.084 0 3.682.802 4.797 2.406l-.125.078a3.19 3.19 0 00-.266.188l-.359.281c-.135.115-.27.25-.406.406-.125.146-.26.313-.407.5a3.88 3.88 0 00-.406.61 9.892 9.892 0 00-.328.734c-.094.25-.172.531-.234.844a5.881 5.881 0 00-.078.969c0 .666.109 1.291.328 1.874.229.584.484 1.053.765 1.407.292.343.615.65.97.922.353.26.619.437.796.53.177.095.302.152.375.173-.02.083-.078.265-.172.547-.094.27-.281.692-.562 1.265a12.32 12.32 0 01-.922 1.625c-.323.469-.594.844-.813 1.125a11.58 11.58 0 01-.828.907 3.37 3.37 0 01-1.015.718 2.648 2.648 0 01-1.11.235c-.531 0-1.166-.162-1.906-.485-.73-.323-1.417-.484-2.063-.484-.646 0-1.359.166-2.14.5-.781.333-1.406.5-1.875.5a2.58 2.58 0 01-1.047-.219c-.323-.146-.651-.38-.984-.703a12.176 12.176 0 01-.829-.938c-.229-.291-.53-.697-.906-1.218-.74-1.052-1.349-2.297-1.828-3.735-.469-1.448-.703-2.88-.703-4.297 0-1.135.172-2.166.515-3.093.355-.938.818-1.698 1.391-2.281a6.362 6.362 0 011.938-1.344 5.396 5.396 0 012.234-.485c.583 0 1.313.177 2.188.532.874.343 1.458.515 1.75.515.25 0 .854-.182 1.812-.547.958-.375 1.776-.562 2.453-.562zm-.86-1.984a4.8 4.8 0 01-1.546 1.234c-.615.323-1.193.484-1.735.484a1.67 1.67 0 01-.328-.031 1.814 1.814 0 01-.046-.438c0-.583.124-1.166.374-1.75.26-.593.579-1.104.954-1.53.437-.522.99-.954 1.656-1.298.666-.343 1.302-.526 1.906-.546.031.145.047.307.047.484 0 1.229-.427 2.36-1.281 3.39zM33.719 25V8.75h2.72V25h-2.72zm1.36-18.984c-.458 0-.854-.167-1.187-.5-.334-.334-.5-.73-.5-1.188 0-.469.166-.864.5-1.187.333-.334.729-.5 1.187-.5.469 0 .87.166 1.203.5.334.323.5.718.5 1.187 0 .458-.166.854-.5 1.188a1.64 1.64 0 01-1.203.5zm5.453-3.563h8.047c2.115 0 3.844.677 5.188 2.031 1.354 1.344 2.03 3.079 2.03 5.204 0 2.135-.676 3.88-2.03 5.234-1.355 1.354-3.094 2.031-5.22 2.031h-5.202V25H40.53V2.453zm2.813 2.5v9.5h4.5c1.604 0 2.849-.416 3.734-1.25.886-.844 1.328-2.015 1.328-3.515s-.442-2.662-1.328-3.485c-.875-.833-2.12-1.25-3.734-1.25h-4.5zM62.562 22.97c1.282 0 2.355-.396 3.22-1.188.874-.802 1.312-1.786 1.312-2.953V17.5l-4.344.266c-1.094.073-1.943.338-2.547.797-.594.458-.89 1.072-.89 1.843 0 .771.296 1.39.89 1.86.594.468 1.38.703 2.36.703zm-.609 2.312c-1.614 0-2.922-.448-3.922-1.343-.99-.896-1.484-2.073-1.484-3.532 0-1.396.51-2.51 1.531-3.343 1.031-.834 2.484-1.303 4.36-1.407l4.656-.265v-1.36c0-.99-.313-1.765-.938-2.328-.625-.562-1.5-.844-2.625-.844-1.031 0-1.87.23-2.515.688-.646.448-1.058 1.078-1.235 1.89h-2.625c.094-1.447.719-2.635 1.875-3.562 1.167-.938 2.688-1.406 4.563-1.406 1.906 0 3.416.479 4.531 1.437 1.125.959 1.688 2.245 1.688 3.86V25h-2.579v-2.797h-.062c-.49.927-1.209 1.672-2.156 2.235a5.898 5.898 0 01-3.063.843zm17.469 0c-2.084 0-3.766-.765-5.047-2.297-1.27-1.53-1.906-3.567-1.906-6.109 0-2.531.635-4.563 1.906-6.094 1.27-1.541 2.932-2.312 4.984-2.312 1.146 0 2.172.26 3.079.781a5.373 5.373 0 012.093 2.14h.063V2.454h2.719V25h-2.594v-2.75h-.047a5.927 5.927 0 01-2.156 2.234c-.907.532-1.938.797-3.094.797zm.516-14.422c-1.438 0-2.579.547-3.422 1.641-.844 1.083-1.266 2.542-1.266 4.375 0 1.844.422 3.307 1.266 4.39.843 1.084 1.984 1.626 3.421 1.626 1.407 0 2.537-.547 3.391-1.641.854-1.104 1.281-2.563 1.281-4.375 0-1.813-.432-3.266-1.296-4.36-.855-1.104-1.98-1.656-3.376-1.656zm18.03-8.406h8.048c2.114 0 3.843.677 5.187 2.031 1.354 1.344 2.031 3.079 2.031 5.204 0 2.135-.677 3.88-2.031 5.234s-3.094 2.031-5.219 2.031h-5.203V25h-2.812V2.453zm2.813 2.5v9.5h4.5c1.604 0 2.849-.416 3.735-1.25.885-.844 1.328-2.015 1.328-3.515s-.443-2.662-1.328-3.485c-.875-.833-2.12-1.25-3.735-1.25h-4.5zM116.047 25V8.75h2.562v2.656h.063c.271-.906.755-1.62 1.453-2.14.708-.532 1.536-.797 2.484-.797.219 0 .584.036 1.094.11v2.64c-.292-.104-.776-.156-1.453-.156-1.052 0-1.896.348-2.531 1.046-.636.698-.953 1.62-.953 2.766V25h-2.719zm15.828.281c-2.271 0-4.094-.755-5.469-2.265-1.375-1.521-2.062-3.568-2.062-6.141s.687-4.615 2.062-6.125c1.375-1.52 3.198-2.281 5.469-2.281 2.26 0 4.078.76 5.453 2.281 1.375 1.51 2.063 3.552 2.063 6.125 0 2.563-.688 4.604-2.063 6.125-1.375 1.52-3.193 2.281-5.453 2.281zm-3.484-3.984c.864 1.062 2.026 1.594 3.484 1.594 1.458 0 2.615-.526 3.469-1.578.854-1.063 1.281-2.542 1.281-4.438s-.427-3.37-1.281-4.422c-.854-1.062-2.011-1.594-3.469-1.594-1.458 0-2.62.532-3.484 1.594-.855 1.063-1.282 2.537-1.282 4.422 0 1.885.427 3.36 1.282 4.422z" fill="#333"/></svg>