<svg width="174" height="32" fill="none" xmlns="http://www.w3.org/2000/svg"><path d="M14.328 6.797c2.084 0 3.682.802 4.797 2.406L19 9.281a3.19 3.19 0 00-.266.188l-.359.281c-.135.115-.27.25-.406.406-.125.146-.26.313-.407.5a3.88 3.88 0 00-.406.61 9.892 9.892 0 00-.328.734c-.094.25-.172.531-.234.844a5.881 5.881 0 00-.078.969c0 .666.109 1.291.328 1.874.229.584.484 1.053.765 1.407.292.343.615.65.97.922.353.26.619.437.796.53.177.095.302.152.375.173-.02.083-.078.265-.172.547-.094.27-.281.692-.562 1.265a12.32 12.32 0 01-.922 1.625c-.323.469-.594.844-.813 1.125a11.58 11.58 0 01-.828.907 3.37 3.37 0 01-1.015.718 2.648 2.648 0 01-1.11.235c-.531 0-1.166-.162-1.906-.485-.73-.323-1.417-.484-2.063-.484-.645 0-1.359.166-2.14.5-.781.333-1.406.5-1.875.5a2.58 2.58 0 01-1.047-.219c-.323-.146-.651-.38-.984-.703a12.176 12.176 0 01-.829-.938c-.229-.291-.53-.697-.906-1.218-.74-1.052-1.349-2.297-1.828-3.735-.469-1.448-.703-2.88-.703-4.297 0-1.135.172-2.166.515-3.093.355-.938.818-1.698 1.391-2.281a6.362 6.362 0 011.938-1.344 5.396 5.396 0 012.234-.485c.583 0 1.313.177 2.188.532.874.343 1.458.515 1.75.515.25 0 .854-.182 1.812-.547.958-.375 1.776-.562 2.453-.562zm-.86-1.984a4.8 4.8 0 01-1.546 1.234c-.615.323-1.193.484-1.735.484A1.67 1.67 0 019.86 6.5a1.816 1.816 0 01-.046-.438c0-.583.124-1.166.374-1.75.26-.593.579-1.104.954-1.53.437-.522.99-.954 1.656-1.298.666-.343 1.302-.526 1.906-.546.031.145.047.307.047.484 0 1.229-.427 2.36-1.281 3.39zM36.313 25H33.5V2.453h2.813v11h.156l9.953-11h3.547l-9.266 9.985L50.797 25h-3.594L38.75 14.437l-2.438 2.688V25zm22.032-14.172c-1.26 0-2.308.438-3.14 1.313-.824.864-1.277 1.979-1.36 3.343h8.828c-.031-1.375-.443-2.494-1.234-3.359-.792-.865-1.823-1.297-3.094-1.297zm4.265 9.516h2.672c-.24 1.437-.99 2.62-2.25 3.547-1.25.927-2.755 1.39-4.515 1.39-2.323 0-4.151-.75-5.485-2.25-1.333-1.5-2-3.531-2-6.093 0-2.542.667-4.589 2-6.141 1.344-1.552 3.13-2.328 5.36-2.328 2.187 0 3.916.734 5.187 2.203 1.271 1.469 1.906 3.437 1.906 5.906v1.031H53.828v.157c0 1.562.427 2.812 1.281 3.75.855.937 2.01 1.406 3.47 1.406 1.02 0 1.89-.235 2.608-.703.72-.469 1.193-1.094 1.422-1.875zm6.97 10.734c-.48 0-.87-.031-1.173-.094v-2.28c.25.051.604.077 1.063.077.76 0 1.37-.203 1.828-.61.458-.395.844-1.067 1.156-2.015l.375-1.14-6-16.266h2.906l4.5 13.531h.047l4.5-13.531h2.86L75.25 26.14c-.698 1.896-1.453 3.193-2.266 3.891-.802.698-1.937 1.047-3.406 1.047zm22.296-5.797c-1.167 0-2.208-.265-3.125-.797a5.78 5.78 0 01-2.156-2.234h-.063V25h-2.594V2.453h2.72v9.016h.062a5.614 5.614 0 012.125-2.203c.916-.532 1.943-.797 3.078-.797 2.052 0 3.708.765 4.969 2.297 1.26 1.53 1.89 3.567 1.89 6.109 0 2.552-.63 4.594-1.89 6.125-1.26 1.52-2.933 2.281-5.016 2.281zm-.531-14.422c-1.386 0-2.516.558-3.39 1.672-.876 1.104-1.313 2.552-1.313 4.344 0 1.802.437 3.255 1.312 4.36.875 1.104 2.005 1.656 3.39 1.656 1.438 0 2.574-.537 3.407-1.61.833-1.083 1.25-2.552 1.25-4.406 0-1.844-.417-3.307-1.25-4.39-.833-1.084-1.969-1.626-3.406-1.626zm16.937 14.422c-2.271 0-4.093-.755-5.469-2.265-1.374-1.521-2.062-3.568-2.062-6.141s.688-4.615 2.062-6.125c1.376-1.52 3.198-2.281 5.469-2.281 2.261 0 4.078.76 5.453 2.281 1.375 1.51 2.063 3.552 2.063 6.125 0 2.563-.688 4.604-2.063 6.125-1.375 1.52-3.192 2.281-5.453 2.281zm-3.484-3.984c.864 1.062 2.026 1.594 3.484 1.594 1.459 0 2.615-.526 3.469-1.578.854-1.063 1.281-2.542 1.281-4.438s-.427-3.37-1.281-4.422c-.854-1.062-2.01-1.594-3.469-1.594-1.458 0-2.62.532-3.484 1.594-.854 1.063-1.281 2.537-1.281 4.422 0 1.885.427 3.36 1.281 4.422zm19.109 1.672c1.282 0 2.354-.396 3.219-1.188.875-.802 1.313-1.786 1.313-2.953V17.5l-4.344.266c-1.094.073-1.943.338-2.547.797-.594.458-.891 1.072-.891 1.843 0 .771.297 1.39.891 1.86.594.468 1.38.703 2.359.703zm-.609 2.312c-1.615 0-2.922-.448-3.922-1.343-.99-.896-1.484-2.073-1.484-3.532 0-1.396.51-2.51 1.531-3.343 1.031-.834 2.484-1.303 4.359-1.407l4.657-.265v-1.36c0-.99-.313-1.765-.938-2.328-.625-.562-1.5-.844-2.625-.844-1.031 0-1.87.23-2.516.688-.645.448-1.057 1.078-1.234 1.89H118.5c.094-1.447.719-2.635 1.875-3.562 1.167-.938 2.687-1.406 4.563-1.406 1.906 0 3.416.479 4.531 1.437 1.125.959 1.687 2.245 1.687 3.86V25h-2.578v-2.797h-.062c-.49.927-1.209 1.672-2.157 2.235a5.896 5.896 0 01-3.062.843zM134.609 25V8.75h2.563v2.656h.062c.271-.906.756-1.62 1.454-2.14.708-.532 1.536-.797 2.484-.797.219 0 .583.036 1.094.11v2.64c-.292-.104-.776-.156-1.454-.156-1.052 0-1.895.348-2.531 1.046-.635.698-.953 1.62-.953 2.766V25h-2.719zm15.25.281c-2.083 0-3.765-.765-5.047-2.297-1.27-1.53-1.906-3.567-1.906-6.109 0-2.531.636-4.563 1.906-6.094 1.271-1.541 2.933-2.312 4.985-2.312 1.146 0 2.172.26 3.078.781a5.38 5.38 0 012.094 2.14h.062V2.454h2.719V25h-2.594v-2.75h-.047a5.926 5.926 0 01-2.156 2.234c-.906.532-1.937.797-3.094.797zm.516-14.422c-1.437 0-2.578.547-3.422 1.641-.844 1.083-1.265 2.542-1.265 4.375 0 1.844.421 3.307 1.265 4.39.844 1.084 1.985 1.626 3.422 1.626 1.406 0 2.536-.547 3.391-1.641.854-1.104 1.281-2.563 1.281-4.375 0-1.813-.432-3.266-1.297-4.36-.854-1.104-1.979-1.656-3.375-1.656zm10.766 2.375c0-1.396.562-2.536 1.687-3.421 1.136-.896 2.594-1.344 4.375-1.344 1.677 0 3.073.448 4.188 1.344 1.114.895 1.703 2.03 1.765 3.406h-2.594c-.093-.792-.447-1.412-1.062-1.86-.604-.447-1.401-.671-2.391-.671-.989 0-1.786.223-2.39.671-.604.438-.907 1.016-.907 1.735 0 1.104.902 1.885 2.704 2.344l2.515.609c1.636.416 2.787.958 3.453 1.625.677.656 1.016 1.583 1.016 2.781 0 1.417-.604 2.578-1.812 3.485-1.209.895-2.761 1.343-4.657 1.343-1.771 0-3.234-.437-4.39-1.312-1.146-.886-1.792-2.052-1.938-3.5h2.719c.302 1.729 1.562 2.593 3.781 2.593 1.094 0 1.958-.213 2.594-.64.646-.438.969-1.026.969-1.766 0-.583-.193-1.047-.578-1.39-.376-.344-1.016-.636-1.922-.875l-2.86-.735c-2.844-.729-4.265-2.203-4.265-4.422z" fill="#333"/></svg>