<svg width="57" height="25" fill="none" xmlns="http://www.w3.org/2000/svg"><path d="M14.695 6.426c2.008 0 3.552.772 4.632 2.316l-.121.091c-.081.05-.167.111-.258.182-.08.06-.192.146-.333.257a3.618 3.618 0 00-.393.394 7.3 7.3 0 00-.409.484 3.753 3.753 0 00-.394.59 5.55 5.55 0 00-.302.697 5.186 5.186 0 00-.227.817c-.05.303-.076.616-.076.938 0 .646.106 1.252.318 1.817.222.565.47 1.014.741 1.347.283.323.59.615.924.878.343.262.6.439.772.53.171.08.293.13.363.151a9.59 9.59 0 01-.166.53c-.091.262-.273.67-.545 1.226-.263.555-.56 1.075-.893 1.559-.253.363-.46.65-.621.863a12.69 12.69 0 01-.636.757c-.252.292-.49.52-.711.68a3.68 3.68 0 01-.772.41 2.5 2.5 0 01-.893.166c-.515 0-1.125-.151-1.832-.454-.696-.313-1.357-.47-1.983-.47-.625 0-1.317.162-2.073.485-.757.313-1.363.47-1.817.47-.656 0-1.246-.243-1.77-.727-.526-.485-1.141-1.232-1.847-2.24-.717-1.01-1.307-2.21-1.771-3.603a13.25 13.25 0 01-.682-4.132c0-1.09.167-2.084.5-2.982.343-.909.792-1.645 1.347-2.21A5.981 5.981 0 014.63 6.94a5.34 5.34 0 012.15-.454c.564 0 1.27.171 2.118.514.848.333 1.413.5 1.696.5.232 0 .807-.177 1.725-.53.929-.363 1.72-.545 2.377-.545zm-.818-1.922A4.648 4.648 0 0112.38 5.7c-.595.313-1.155.469-1.68.469-.101 0-.202-.01-.303-.03a1.758 1.758 0 01-.045-.424c0-.565.12-1.13.363-1.695a5.305 5.305 0 012.497-2.71c.646-.333 1.262-.51 1.847-.53.03.131.046.288.046.47 0 1.18-.41 2.265-1.227 3.254zM45.683 24h-3.415V11.635h-.102L37.19 23.822h-2.413l-4.976-12.187h-.102V24h-3.415V5.68h4.444l5.205 12.988h.101L41.24 5.681h4.444V24zm7.477 0V9.197h-.076l-4.672 3.225V8.969l4.736-3.288h3.808V24H53.16z" fill="url(#paint0_linear)"/><defs><linearGradient id="paint0_linear" x1="150.034" y1="-9" x2="150.034" y2="34" gradientUnits="userSpaceOnUse"><stop stop-color="#FF5F99"/><stop offset="1" stop-color="#49B6FF"/></linearGradient></defs></svg>