<svg width="151" height="26" fill="none" xmlns="http://www.w3.org/2000/svg"><path d="M15.156 6.547c2.136 0 3.771.823 4.906 2.469l-.125.078c-.083.062-.171.13-.265.203a3.976 3.976 0 00-.36.281c-.145.115-.286.25-.421.406-.136.146-.282.313-.438.5a4.222 4.222 0 00-.406.641 6.84 6.84 0 00-.344.734c-.094.26-.172.553-.234.875a6.003 6.003 0 00-.078.985c0 .687.114 1.333.343 1.937.23.594.49 1.068.782 1.422.302.344.63.656.984.938.365.27.635.453.813.547.177.083.307.14.39.171-.01.084-.068.271-.172.563-.104.291-.297.729-.578 1.312-.281.573-.599 1.12-.953 1.641-.333.49-.61.875-.828 1.156a14.12 14.12 0 01-.828.922 3.37 3.37 0 01-1.047.735c-.354.166-.735.25-1.14.25-.542 0-1.188-.167-1.938-.5-.75-.334-1.453-.5-2.11-.5-.666 0-1.4.171-2.203.515-.802.344-1.442.516-1.922.516-.687 0-1.312-.256-1.875-.766-.552-.52-1.208-1.318-1.968-2.39-.75-1.084-1.37-2.36-1.86-3.829-.49-1.479-.734-2.942-.734-4.39 0-1.156.177-2.209.531-3.156.365-.959.839-1.735 1.422-2.329a6.41 6.41 0 011.984-1.39c.74-.323 1.5-.485 2.282-.485.593 0 1.338.183 2.234.547.906.354 1.505.532 1.797.532.25 0 .864-.188 1.844-.563.979-.385 1.817-.578 2.515-.578zm-.875-2.031c-.416.51-.943.932-1.578 1.265-.625.334-1.219.5-1.781.5a1.67 1.67 0 01-.328-.031 1.89 1.89 0 01-.047-.453c0-.604.13-1.203.39-1.797a5.91 5.91 0 01.97-1.547 5.523 5.523 0 011.687-1.328C14.27.771 14.917.583 15.53.562c.031.136.047.303.047.5 0 1.26-.432 2.412-1.297 3.454zM27.094 25V8.25h4.562V25h-4.562zm4.015-19.281c-.468.458-1.047.687-1.734.687-.688 0-1.266-.229-1.734-.687a2.25 2.25 0 01-.703-1.672c0-.667.234-1.224.703-1.672.468-.458 1.047-.688 1.734-.688.688 0 1.266.23 1.734.688.47.448.703 1.005.703 1.672a2.25 2.25 0 01-.703 1.672zM58.97 25h-4.203V9.781h-.125l-6.125 15h-2.97l-6.124-15h-.125V25h-4.203V2.453h5.468l6.407 15.985h.125L53.5 2.453h5.469V25zm9.453-3.031c1.01 0 1.865-.292 2.562-.875.709-.594 1.063-1.339 1.063-2.235v-1.218l-3.531.218c-.855.063-1.516.276-1.985.641-.458.365-.687.844-.687 1.438 0 .625.234 1.12.703 1.484.469.364 1.094.547 1.875.547zm-1.5 3.297c-1.615 0-2.953-.474-4.016-1.422-1.062-.948-1.593-2.167-1.593-3.657 0-1.52.562-2.713 1.687-3.578 1.125-.864 2.734-1.359 4.828-1.484l4.219-.25v-1.11c0-.77-.255-1.374-.766-1.812-.5-.437-1.182-.656-2.047-.656-.833 0-1.515.187-2.046.562-.521.375-.839.88-.954 1.516h-4.171c.083-1.646.786-2.969 2.109-3.969 1.323-1.01 3.078-1.515 5.266-1.515 2.145 0 3.864.51 5.156 1.53 1.291 1.022 1.937 2.376 1.937 4.063V25h-4.406v-2.563h-.094c-.458.875-1.156 1.568-2.094 2.079-.937.5-1.942.75-3.015.75zm27.781-10.782H90.47c-.136-.906-.495-1.635-1.078-2.187-.573-.552-1.318-.828-2.235-.828-1.135 0-2.031.458-2.687 1.375-.646.906-.969 2.161-.969 3.765 0 1.636.323 2.907.969 3.813.656.906 1.557 1.36 2.703 1.36.906 0 1.646-.256 2.219-.766.572-.521.932-1.24 1.078-2.157h4.25c-.115 1.98-.86 3.558-2.235 4.735-1.375 1.177-3.161 1.765-5.359 1.765-2.542 0-4.552-.776-6.031-2.328-1.48-1.562-2.219-3.703-2.219-6.422 0-2.677.74-4.797 2.219-6.359 1.49-1.573 3.49-2.36 6-2.36 2.229 0 4.026.615 5.39 1.844 1.375 1.23 2.115 2.813 2.22 4.75zm8.953-12.03h9.172c2.323 0 4.203.707 5.641 2.124 1.448 1.417 2.172 3.281 2.172 5.594 0 2.302-.745 4.166-2.235 5.594-1.489 1.416-3.427 2.125-5.812 2.125h-4.219V25h-4.719V2.453zm4.719 3.733v8.016h3.187c1.355 0 2.407-.349 3.157-1.047s1.125-1.687 1.125-2.969c0-1.28-.375-2.265-1.125-2.953-.74-.698-1.787-1.046-3.141-1.046h-3.203zM123.047 25V8.25h4.406v3.016h.094c.292-1.063.781-1.875 1.469-2.438.687-.562 1.526-.844 2.515-.844.479 0 .912.058 1.297.172v4.016c-.427-.177-.979-.266-1.656-.266-1.125 0-2 .328-2.625.985-.625.656-.938 1.572-.938 2.75V25h-4.562zm24.844-1.953c-1.49 1.541-3.511 2.312-6.063 2.312-2.552 0-4.573-.776-6.062-2.328-1.49-1.552-2.235-3.692-2.235-6.422 0-2.698.75-4.823 2.25-6.375 1.511-1.562 3.526-2.343 6.047-2.343 2.531 0 4.547.78 6.047 2.343 1.5 1.553 2.25 3.678 2.25 6.375 0 2.74-.745 4.886-2.234 6.438zm-6.063-1.172c1.125 0 2.016-.458 2.672-1.375.656-.917.984-2.208.984-3.875 0-1.646-.328-2.932-.984-3.86-.656-.927-1.547-1.39-2.672-1.39-1.125 0-2.021.463-2.687 1.39-.657.928-.985 2.214-.985 3.86 0 1.667.328 2.958.985 3.875.656.917 1.552 1.375 2.687 1.375z" fill="#EAEAEA"/></svg>