<svg width="140" height="26" viewBox="0 0 140 26" fill="none" xmlns="http://www.w3.org/2000/svg">
<path d="M14.8281 6.79688C16.9115 6.79688 18.5104 7.59896 19.625 9.20312L19.5 9.28125C19.4167 9.33333 19.3281 9.39583 19.2344 9.46875C19.1406 9.54167 19.0208 9.63542 18.875 9.75C18.7396 9.86458 18.6042 10 18.4688 10.1562C18.3438 10.3021 18.2083 10.4688 18.0625 10.6562C17.9167 10.8333 17.7812 11.0365 17.6562 11.2656C17.5417 11.4948 17.4323 11.7396 17.3281 12C17.2344 12.25 17.1562 12.5312 17.0938 12.8438C17.0417 13.1562 17.0156 13.4792 17.0156 13.8125C17.0156 14.4792 17.125 15.1042 17.3438 15.6875C17.5729 16.2708 17.8281 16.7396 18.1094 17.0938C18.401 17.4375 18.724 17.7448 19.0781 18.0156C19.4323 18.276 19.6979 18.4531 19.875 18.5469C20.0521 18.6406 20.1771 18.6979 20.25 18.7188C20.2292 18.8021 20.1719 18.9844 20.0781 19.2656C19.9844 19.5365 19.7969 19.9583 19.5156 20.5312C19.2448 21.1042 18.9375 21.6458 18.5938 22.1562C18.2708 22.625 18 23 17.7812 23.2812C17.5625 23.5521 17.2865 23.8542 16.9531 24.1875C16.6302 24.5104 16.2917 24.75 15.9375 24.9062C15.5938 25.0625 15.224 25.1406 14.8281 25.1406C14.2969 25.1406 13.6615 24.9792 12.9219 24.6562C12.1927 24.3333 11.5052 24.1719 10.8594 24.1719C10.2135 24.1719 9.5 24.3385 8.71875 24.6719C7.9375 25.0052 7.3125 25.1719 6.84375 25.1719C6.47917 25.1719 6.13021 25.099 5.79688 24.9531C5.47396 24.8073 5.14583 24.5729 4.8125 24.25C4.48958 23.9167 4.21354 23.6042 3.98438 23.3125C3.75521 23.0208 3.45312 22.6146 3.07812 22.0938C2.33854 21.0417 1.72917 19.7969 1.25 18.3594C0.78125 16.9115 0.546875 15.4792 0.546875 14.0625C0.546875 12.9271 0.71875 11.8958 1.0625 10.9688C1.41667 10.0312 1.88021 9.27083 2.45312 8.6875C3.03646 8.10417 3.68229 7.65625 4.39062 7.34375C5.10938 7.02083 5.85417 6.85938 6.625 6.85938C7.20833 6.85938 7.9375 7.03646 8.8125 7.39062C9.6875 7.73438 10.2708 7.90625 10.5625 7.90625C10.8125 7.90625 11.4167 7.72396 12.375 7.35938C13.3333 6.98438 14.151 6.79688 14.8281 6.79688ZM13.9688 4.8125C13.5625 5.3125 13.0469 5.72396 12.4219 6.04688C11.8073 6.36979 11.2292 6.53125 10.6875 6.53125C10.5729 6.53125 10.4635 6.52083 10.3594 6.5C10.3281 6.375 10.3125 6.22917 10.3125 6.0625C10.3125 5.47917 10.4375 4.89583 10.6875 4.3125C10.9479 3.71875 11.2656 3.20833 11.6406 2.78125C12.0781 2.26042 12.6302 1.82812 13.2969 1.48438C13.9635 1.14062 14.599 0.958333 15.2031 0.9375C15.2344 1.08333 15.25 1.24479 15.25 1.42188C15.25 2.65104 14.8229 3.78125 13.9688 4.8125ZM33.7188 25V8.75H36.4375V25H33.7188ZM35.0781 6.01562C34.6198 6.01562 34.224 5.84896 33.8906 5.51562C33.5573 5.18229 33.3906 4.78646 33.3906 4.32812C33.3906 3.85938 33.5573 3.46354 33.8906 3.14062C34.224 2.80729 34.6198 2.64062 35.0781 2.64062C35.5469 2.64062 35.9479 2.80729 36.2812 3.14062C36.6146 3.46354 36.7812 3.85938 36.7812 4.32812C36.7812 4.78646 36.6146 5.18229 36.2812 5.51562C35.9479 5.84896 35.5469 6.01562 35.0781 6.01562ZM40.5312 2.45312H48.5781C50.6927 2.45312 52.4219 3.13021 53.7656 4.48438C55.1198 5.82812 55.7969 7.5625 55.7969 9.6875C55.7969 11.8229 55.1198 13.5677 53.7656 14.9219C52.4115 16.276 50.6719 16.9531 48.5469 16.9531H43.3438V25H40.5312V2.45312ZM43.3438 4.95312V14.4531H47.8438C49.4479 14.4531 50.6927 14.0365 51.5781 13.2031C52.4635 12.3594 52.9062 11.1875 52.9062 9.6875C52.9062 8.1875 52.4635 7.02604 51.5781 6.20312C50.7031 5.36979 49.4583 4.95312 47.8438 4.95312H43.3438ZM62.5625 22.9688C63.8438 22.9688 64.9167 22.5729 65.7812 21.7812C66.6562 20.9792 67.0938 19.9948 67.0938 18.8281V17.5L62.75 17.7656C61.6562 17.8385 60.8073 18.1042 60.2031 18.5625C59.6094 19.0208 59.3125 19.6354 59.3125 20.4062C59.3125 21.1771 59.6094 21.7969 60.2031 22.2656C60.7969 22.7344 61.5833 22.9688 62.5625 22.9688ZM61.9531 25.2812C60.3385 25.2812 59.0312 24.8333 58.0312 23.9375C57.0417 23.0417 56.5469 21.8646 56.5469 20.4062C56.5469 19.0104 57.0573 17.8958 58.0781 17.0625C59.1094 16.2292 60.5625 15.7604 62.4375 15.6562L67.0938 15.3906V14.0312C67.0938 13.0417 66.7812 12.2656 66.1562 11.7031C65.5312 11.1406 64.6562 10.8594 63.5312 10.8594C62.5 10.8594 61.6615 11.0885 61.0156 11.5469C60.3698 11.9948 59.9583 12.625 59.7812 13.4375H57.1562C57.25 11.9896 57.875 10.8021 59.0312 9.875C60.1979 8.9375 61.7188 8.46875 63.5938 8.46875C65.5 8.46875 67.0104 8.94792 68.125 9.90625C69.25 10.8646 69.8125 12.151 69.8125 13.7656V25H67.2344V22.2031H67.1719C66.6823 23.1302 65.9635 23.875 65.0156 24.4375C64.0677 25 63.0469 25.2812 61.9531 25.2812ZM79.4219 25.2812C77.3385 25.2812 75.6562 24.5156 74.375 22.9844C73.1042 21.4531 72.4688 19.4167 72.4688 16.875C72.4688 14.3438 73.1042 12.3125 74.375 10.7812C75.6458 9.23958 77.3073 8.46875 79.3594 8.46875C80.5052 8.46875 81.5312 8.72917 82.4375 9.25C83.3438 9.77083 84.0417 10.4844 84.5312 11.3906H84.5938V2.45312H87.3125V25H84.7188V22.25H84.6719C84.1406 23.1979 83.4219 23.9427 82.5156 24.4844C81.6094 25.0156 80.5781 25.2812 79.4219 25.2812ZM79.9375 10.8594C78.5 10.8594 77.3594 11.4062 76.5156 12.5C75.6719 13.5833 75.25 15.0417 75.25 16.875C75.25 18.7188 75.6719 20.1823 76.5156 21.2656C77.3594 22.349 78.5 22.8906 79.9375 22.8906C81.3438 22.8906 82.474 22.3438 83.3281 21.25C84.1823 20.1458 84.6094 18.6875 84.6094 16.875C84.6094 15.0625 84.1771 13.6094 83.3125 12.5156C82.4583 11.4115 81.3333 10.8594 79.9375 10.8594ZM97.9688 2.45312H106.016C108.13 2.45312 109.859 3.13021 111.203 4.48438C112.557 5.82812 113.234 7.5625 113.234 9.6875C113.234 11.8229 112.557 13.5677 111.203 14.9219C109.849 16.276 108.109 16.9531 105.984 16.9531H100.781V25H97.9688V2.45312ZM100.781 4.95312V14.4531H105.281C106.885 14.4531 108.13 14.0365 109.016 13.2031C109.901 12.3594 110.344 11.1875 110.344 9.6875C110.344 8.1875 109.901 7.02604 109.016 6.20312C108.141 5.36979 106.896 4.95312 105.281 4.95312H100.781ZM116.047 25V8.75H118.609V11.4062H118.672C118.943 10.5 119.427 9.78646 120.125 9.26562C120.833 8.73438 121.661 8.46875 122.609 8.46875C122.828 8.46875 123.193 8.50521 123.703 8.57812V11.2188C123.411 11.1146 122.927 11.0625 122.25 11.0625C121.198 11.0625 120.354 11.4115 119.719 12.1094C119.083 12.8073 118.766 13.7292 118.766 14.875V25H116.047ZM131.875 25.2812C129.604 25.2812 127.781 24.526 126.406 23.0156C125.031 21.4948 124.344 19.4479 124.344 16.875C124.344 14.3021 125.031 12.2604 126.406 10.75C127.781 9.22917 129.604 8.46875 131.875 8.46875C134.135 8.46875 135.953 9.22917 137.328 10.75C138.703 12.2604 139.391 14.3021 139.391 16.875C139.391 19.4375 138.703 21.4792 137.328 23C135.953 24.5208 134.135 25.2812 131.875 25.2812ZM128.391 21.2969C129.255 22.3594 130.417 22.8906 131.875 22.8906C133.333 22.8906 134.49 22.3646 135.344 21.3125C136.198 20.25 136.625 18.7708 136.625 16.875C136.625 14.9792 136.198 13.5052 135.344 12.4531C134.49 11.3906 133.333 10.8594 131.875 10.8594C130.417 10.8594 129.255 11.3906 128.391 12.4531C127.536 13.5156 127.109 14.9896 127.109 16.875C127.109 18.7604 127.536 20.2344 128.391 21.2969Z" fill="#333333"/>
</svg>
