<svg width="174" height="32" viewBox="0 0 174 32" fill="none" xmlns="http://www.w3.org/2000/svg">
<path d="M14.3281 6.79688C16.4115 6.79688 18.0104 7.59896 19.125 9.20312L19 9.28125C18.9167 9.33333 18.8281 9.39583 18.7344 9.46875C18.6406 9.54167 18.5208 9.63542 18.375 9.75C18.2396 9.86458 18.1042 10 17.9688 10.1562C17.8438 10.3021 17.7083 10.4688 17.5625 10.6562C17.4167 10.8333 17.2812 11.0365 17.1562 11.2656C17.0417 11.4948 16.9323 11.7396 16.8281 12C16.7344 12.25 16.6562 12.5312 16.5938 12.8438C16.5417 13.1562 16.5156 13.4792 16.5156 13.8125C16.5156 14.4792 16.625 15.1042 16.8438 15.6875C17.0729 16.2708 17.3281 16.7396 17.6094 17.0938C17.901 17.4375 18.224 17.7448 18.5781 18.0156C18.9323 18.276 19.1979 18.4531 19.375 18.5469C19.5521 18.6406 19.6771 18.6979 19.75 18.7188C19.7292 18.8021 19.6719 18.9844 19.5781 19.2656C19.4844 19.5365 19.2969 19.9583 19.0156 20.5312C18.7448 21.1042 18.4375 21.6458 18.0938 22.1562C17.7708 22.625 17.5 23 17.2812 23.2812C17.0625 23.5521 16.7865 23.8542 16.4531 24.1875C16.1302 24.5104 15.7917 24.75 15.4375 24.9062C15.0938 25.0625 14.724 25.1406 14.3281 25.1406C13.7969 25.1406 13.1615 24.9792 12.4219 24.6562C11.6927 24.3333 11.0052 24.1719 10.3594 24.1719C9.71354 24.1719 9 24.3385 8.21875 24.6719C7.4375 25.0052 6.8125 25.1719 6.34375 25.1719C5.97917 25.1719 5.63021 25.099 5.29688 24.9531C4.97396 24.8073 4.64583 24.5729 4.3125 24.25C3.98958 23.9167 3.71354 23.6042 3.48438 23.3125C3.25521 23.0208 2.95312 22.6146 2.57812 22.0938C1.83854 21.0417 1.22917 19.7969 0.75 18.3594C0.28125 16.9115 0.046875 15.4792 0.046875 14.0625C0.046875 12.9271 0.21875 11.8958 0.5625 10.9688C0.916667 10.0312 1.38021 9.27083 1.95312 8.6875C2.53646 8.10417 3.18229 7.65625 3.89062 7.34375C4.60938 7.02083 5.35417 6.85938 6.125 6.85938C6.70833 6.85938 7.4375 7.03646 8.3125 7.39062C9.1875 7.73438 9.77083 7.90625 10.0625 7.90625C10.3125 7.90625 10.9167 7.72396 11.875 7.35938C12.8333 6.98438 13.651 6.79688 14.3281 6.79688ZM13.4688 4.8125C13.0625 5.3125 12.5469 5.72396 11.9219 6.04688C11.3073 6.36979 10.7292 6.53125 10.1875 6.53125C10.0729 6.53125 9.96354 6.52083 9.85938 6.5C9.82812 6.375 9.8125 6.22917 9.8125 6.0625C9.8125 5.47917 9.9375 4.89583 10.1875 4.3125C10.4479 3.71875 10.7656 3.20833 11.1406 2.78125C11.5781 2.26042 12.1302 1.82812 12.7969 1.48438C13.4635 1.14062 14.099 0.958333 14.7031 0.9375C14.7344 1.08333 14.75 1.24479 14.75 1.42188C14.75 2.65104 14.3229 3.78125 13.4688 4.8125ZM36.3125 25H33.5V2.45312H36.3125V13.4531H36.4688L46.4219 2.45312H49.9688L40.7031 12.4375L50.7969 25H47.2031L38.75 14.4375L36.3125 17.125V25ZM58.3438 10.8281C57.0833 10.8281 56.0365 11.2656 55.2031 12.1406C54.3802 13.0052 53.9271 14.1198 53.8438 15.4844H62.6719C62.6406 14.1094 62.2292 12.9896 61.4375 12.125C60.6458 11.2604 59.6146 10.8281 58.3438 10.8281ZM62.6094 20.3438H65.2812C65.0417 21.7812 64.2917 22.9635 63.0312 23.8906C61.7812 24.8177 60.276 25.2812 58.5156 25.2812C56.1927 25.2812 54.3646 24.5312 53.0312 23.0312C51.6979 21.5312 51.0312 19.5 51.0312 16.9375C51.0312 14.3958 51.6979 12.349 53.0312 10.7969C54.375 9.24479 56.1615 8.46875 58.3906 8.46875C60.5781 8.46875 62.3073 9.20312 63.5781 10.6719C64.849 12.1406 65.4844 14.1094 65.4844 16.5781V17.6094H53.8281V17.7656C53.8281 19.3281 54.2552 20.5781 55.1094 21.5156C55.9635 22.4531 57.1198 22.9219 58.5781 22.9219C59.599 22.9219 60.4688 22.6875 61.1875 22.2188C61.9062 21.75 62.3802 21.125 62.6094 20.3438ZM69.5781 31.0781C69.099 31.0781 68.7083 31.0469 68.4062 30.9844V28.7031C68.6562 28.7552 69.0104 28.7812 69.4688 28.7812C70.2292 28.7812 70.8385 28.5781 71.2969 28.1719C71.7552 27.776 72.1406 27.1042 72.4531 26.1562L72.8281 25.0156L66.8281 8.75H69.7344L74.2344 22.2812H74.2812L78.7812 8.75H81.6406L75.25 26.1406C74.5521 28.0365 73.7969 29.3333 72.9844 30.0312C72.1823 30.7292 71.0469 31.0781 69.5781 31.0781ZM91.875 25.2812C90.7083 25.2812 89.6667 25.0156 88.75 24.4844C87.8438 23.9531 87.125 23.2083 86.5938 22.25H86.5312V25H83.9375V2.45312H86.6562V11.4688H86.7188C87.2292 10.5312 87.9375 9.79688 88.8438 9.26562C89.7604 8.73438 90.7865 8.46875 91.9219 8.46875C93.974 8.46875 95.6302 9.23438 96.8906 10.7656C98.151 12.2969 98.7812 14.3333 98.7812 16.875C98.7812 19.4271 98.151 21.4688 96.8906 23C95.6302 24.5208 93.9583 25.2812 91.875 25.2812ZM91.3438 10.8594C89.9583 10.8594 88.8281 11.4167 87.9531 12.5312C87.0781 13.6354 86.6406 15.0833 86.6406 16.875C86.6406 18.6771 87.0781 20.1302 87.9531 21.2344C88.8281 22.3385 89.9583 22.8906 91.3438 22.8906C92.7812 22.8906 93.9167 22.3542 94.75 21.2812C95.5833 20.1979 96 18.7292 96 16.875C96 15.0312 95.5833 13.5677 94.75 12.4844C93.9167 11.401 92.7812 10.8594 91.3438 10.8594ZM108.281 25.2812C106.01 25.2812 104.188 24.526 102.812 23.0156C101.438 21.4948 100.75 19.4479 100.75 16.875C100.75 14.3021 101.438 12.2604 102.812 10.75C104.188 9.22917 106.01 8.46875 108.281 8.46875C110.542 8.46875 112.359 9.22917 113.734 10.75C115.109 12.2604 115.797 14.3021 115.797 16.875C115.797 19.4375 115.109 21.4792 113.734 23C112.359 24.5208 110.542 25.2812 108.281 25.2812ZM104.797 21.2969C105.661 22.3594 106.823 22.8906 108.281 22.8906C109.74 22.8906 110.896 22.3646 111.75 21.3125C112.604 20.25 113.031 18.7708 113.031 16.875C113.031 14.9792 112.604 13.5052 111.75 12.4531C110.896 11.3906 109.74 10.8594 108.281 10.8594C106.823 10.8594 105.661 11.3906 104.797 12.4531C103.943 13.5156 103.516 14.9896 103.516 16.875C103.516 18.7604 103.943 20.2344 104.797 21.2969ZM123.906 22.9688C125.188 22.9688 126.26 22.5729 127.125 21.7812C128 20.9792 128.438 19.9948 128.438 18.8281V17.5L124.094 17.7656C123 17.8385 122.151 18.1042 121.547 18.5625C120.953 19.0208 120.656 19.6354 120.656 20.4062C120.656 21.1771 120.953 21.7969 121.547 22.2656C122.141 22.7344 122.927 22.9688 123.906 22.9688ZM123.297 25.2812C121.682 25.2812 120.375 24.8333 119.375 23.9375C118.385 23.0417 117.891 21.8646 117.891 20.4062C117.891 19.0104 118.401 17.8958 119.422 17.0625C120.453 16.2292 121.906 15.7604 123.781 15.6562L128.438 15.3906V14.0312C128.438 13.0417 128.125 12.2656 127.5 11.7031C126.875 11.1406 126 10.8594 124.875 10.8594C123.844 10.8594 123.005 11.0885 122.359 11.5469C121.714 11.9948 121.302 12.625 121.125 13.4375H118.5C118.594 11.9896 119.219 10.8021 120.375 9.875C121.542 8.9375 123.062 8.46875 124.938 8.46875C126.844 8.46875 128.354 8.94792 129.469 9.90625C130.594 10.8646 131.156 12.151 131.156 13.7656V25H128.578V22.2031H128.516C128.026 23.1302 127.307 23.875 126.359 24.4375C125.411 25 124.391 25.2812 123.297 25.2812ZM134.609 25V8.75H137.172V11.4062H137.234C137.505 10.5 137.99 9.78646 138.688 9.26562C139.396 8.73438 140.224 8.46875 141.172 8.46875C141.391 8.46875 141.755 8.50521 142.266 8.57812V11.2188C141.974 11.1146 141.49 11.0625 140.812 11.0625C139.76 11.0625 138.917 11.4115 138.281 12.1094C137.646 12.8073 137.328 13.7292 137.328 14.875V25H134.609ZM149.859 25.2812C147.776 25.2812 146.094 24.5156 144.812 22.9844C143.542 21.4531 142.906 19.4167 142.906 16.875C142.906 14.3438 143.542 12.3125 144.812 10.7812C146.083 9.23958 147.745 8.46875 149.797 8.46875C150.943 8.46875 151.969 8.72917 152.875 9.25C153.781 9.77083 154.479 10.4844 154.969 11.3906H155.031V2.45312H157.75V25H155.156V22.25H155.109C154.578 23.1979 153.859 23.9427 152.953 24.4844C152.047 25.0156 151.016 25.2812 149.859 25.2812ZM150.375 10.8594C148.938 10.8594 147.797 11.4062 146.953 12.5C146.109 13.5833 145.688 15.0417 145.688 16.875C145.688 18.7188 146.109 20.1823 146.953 21.2656C147.797 22.349 148.938 22.8906 150.375 22.8906C151.781 22.8906 152.911 22.3438 153.766 21.25C154.62 20.1458 155.047 18.6875 155.047 16.875C155.047 15.0625 154.615 13.6094 153.75 12.5156C152.896 11.4115 151.771 10.8594 150.375 10.8594ZM161.141 13.2344C161.141 11.8385 161.703 10.6979 162.828 9.8125C163.964 8.91667 165.422 8.46875 167.203 8.46875C168.88 8.46875 170.276 8.91667 171.391 9.8125C172.505 10.7083 173.094 11.8438 173.156 13.2188H170.562C170.469 12.4271 170.115 11.8073 169.5 11.3594C168.896 10.9115 168.099 10.6875 167.109 10.6875C166.12 10.6875 165.323 10.9115 164.719 11.3594C164.115 11.7969 163.812 12.375 163.812 13.0938C163.812 14.1979 164.714 14.9792 166.516 15.4375L169.031 16.0469C170.667 16.4635 171.818 17.0052 172.484 17.6719C173.161 18.3281 173.5 19.2552 173.5 20.4531C173.5 21.8698 172.896 23.0312 171.688 23.9375C170.479 24.8333 168.927 25.2812 167.031 25.2812C165.26 25.2812 163.797 24.8438 162.641 23.9688C161.495 23.0833 160.849 21.9167 160.703 20.4688H163.422C163.724 22.1979 164.984 23.0625 167.203 23.0625C168.297 23.0625 169.161 22.849 169.797 22.4219C170.443 21.9844 170.766 21.3958 170.766 20.6562C170.766 20.0729 170.573 19.6094 170.188 19.2656C169.812 18.9219 169.172 18.6302 168.266 18.3906L165.406 17.6562C162.562 16.9271 161.141 15.4531 161.141 13.2344Z" fill="#333333"/>
</svg>
