<svg width="24" height="45" viewBox="0 0 24 45" fill="none" xmlns="http://www.w3.org/2000/svg">
<path d="M6.83225 34.0515C6.35907 33.7367 5.93969 33.3477 5.59025 32.8995C5.20586 32.4369 4.84972 31.9515 4.52375 31.446C3.75881 30.3254 3.15893 29.1006 2.7425 27.8092C2.24225 26.3092 2 24.8715 2 23.4652C2 21.8947 2.33975 20.5238 3.00425 19.3717C3.49683 18.4713 4.22106 17.7189 5.102 17.1923C5.95573 16.662 6.93668 16.3718 7.9415 16.3523C8.29325 16.3523 8.672 16.4033 9.074 16.5008C9.36275 16.5825 9.7145 16.7115 10.1442 16.872C10.691 17.0828 10.9917 17.2118 11.0937 17.2432C11.414 17.3602 11.6832 17.4113 11.8947 17.4113C12.0552 17.4113 12.2817 17.3602 12.539 17.2823C12.6838 17.2313 12.9567 17.1413 13.3475 16.974C13.7345 16.833 14.039 16.7123 14.2812 16.6223C14.6525 16.5128 15.0117 16.4115 15.332 16.3605C15.7117 16.3006 16.097 16.2848 16.4802 16.3133C17.1445 16.3567 17.7987 16.4974 18.422 16.731C19.4412 17.1413 20.2655 17.7818 20.879 18.6923C20.6197 18.8521 20.3763 19.0364 20.1522 19.2428C19.6645 19.6752 19.249 20.1828 18.9215 20.7465C18.4935 21.5168 18.2716 22.3845 18.2772 23.2657C18.293 24.348 18.5705 25.3012 19.1173 26.1255C19.5192 26.7364 20.0416 27.2588 20.6525 27.6607C20.9652 27.8715 21.2345 28.0162 21.4925 28.1137C21.3717 28.4887 21.2427 28.8517 21.0905 29.2118C20.7452 30.019 20.3267 30.793 19.8402 31.524C19.4067 32.1532 19.067 32.622 18.809 32.934C18.407 33.4102 18.02 33.774 17.6292 34.0275C17.1995 34.3125 16.6917 34.4647 16.1757 34.4647C15.8263 34.4782 15.4769 34.4359 15.1407 34.3395C14.852 34.242 14.5662 34.1362 14.285 34.0155C13.9926 33.8812 13.6911 33.7677 13.3827 33.6757C12.6205 33.48 11.8214 33.4787 11.0585 33.672C10.7457 33.762 10.445 33.867 10.148 33.996C9.73025 34.1715 9.45275 34.2892 9.29225 34.3395C8.972 34.4333 8.63975 34.4917 8.30375 34.5112C7.784 34.5112 7.2995 34.3628 6.8195 34.062L6.83225 34.0515ZM13.6872 15.5903C13.0077 15.93 12.359 16.0747 11.7147 16.0275C11.6135 15.3787 11.7147 14.715 11.984 13.9883C12.2132 13.3725 12.5519 12.8034 12.9837 12.3082C13.4398 11.787 13.9931 11.3598 14.6128 11.0505C15.2727 10.7107 15.902 10.527 16.5035 10.5C16.5815 11.1795 16.5035 11.8477 16.2537 12.57C16.0226 13.2085 15.6845 13.8029 15.254 14.328C14.8145 14.8499 14.2752 15.2788 13.6677 15.5895L13.6872 15.5903Z" fill="#A5A5A6"/>
</svg>
