<svg width="26" height="26" viewBox="0 0 26 26" fill="none" xmlns="http://www.w3.org/2000/svg">
<path d="M24.3336 11.5835H5.67609L9.75609 7.50348C10.021 7.2386 10.1698 6.87934 10.1698 6.50473C10.1698 6.13013 10.021 5.77087 9.75609 5.50598C9.49121 5.2411 9.13195 5.09229 8.75734 5.09229C8.38274 5.09229 8.02348 5.2411 7.75859 5.50598L1.25609 12.0085C1.12476 12.1395 1.02057 12.2952 0.94948 12.4666C0.878389 12.638 0.841797 12.8217 0.841797 13.0072C0.841797 13.1928 0.878389 13.3765 0.94948 13.5479C1.02057 13.7192 1.12476 13.8749 1.25609 14.006L7.75859 20.5085C7.88975 20.6396 8.04546 20.7437 8.21682 20.8147C8.38819 20.8856 8.57186 20.9222 8.75734 20.9222C8.94283 20.9222 9.1265 20.8856 9.29786 20.8147C9.46923 20.7437 9.62494 20.6396 9.75609 20.5085C9.88725 20.3773 9.99129 20.2216 10.0623 20.0503C10.1333 19.8789 10.1698 19.6952 10.1698 19.5097C10.1698 19.3242 10.1333 19.1406 10.0623 18.9692C9.99129 18.7978 9.88725 18.6421 9.75609 18.511L5.67609 14.4168H24.3336C25.1128 14.4168 25.7503 13.7793 25.7503 13.0001C25.7503 12.221 25.1128 11.5835 24.3336 11.5835Z" fill="#333333"/>
</svg>
