<svg width="40" height="38" viewBox="0 0 40 38" fill="none" xmlns="http://www.w3.org/2000/svg">
<path fill-rule="evenodd" clip-rule="evenodd" d="M29.822 14.431C29.73 14.2981 29.6072 14.1894 29.464 14.1144C29.3209 14.0393 29.1616 14.0001 29 14H15.333L14.179 11.23C14.0277 10.8652 13.7715 10.5536 13.4428 10.3346C13.1142 10.1156 12.7279 9.99918 12.333 10H10V12H12.333L17.077 23.385C17.153 23.5672 17.2812 23.7228 17.4454 23.8322C17.6097 23.9416 17.8026 24 18 24H26C26.417 24 26.79 23.741 26.937 23.352L29.937 15.352C29.9937 15.2006 30.0129 15.0378 29.9928 14.8774C29.9728 14.717 29.9142 14.5638 29.822 14.431ZM25.307 22H18.667L16.167 16H27.557L25.307 22Z" fill="#333333"/>
<path d="M18.5 28C19.3284 28 20 27.3284 20 26.5C20 25.6716 19.3284 25 18.5 25C17.6716 25 17 25.6716 17 26.5C17 27.3284 17.6716 28 18.5 28Z" fill="#333333"/>
<path d="M27 26.5C27 27.3284 26.3284 28 25.5 28C24.6716 28 24 27.3284 24 26.5C24 25.6716 24.6716 25 25.5 25C26.3284 25 27 25.6716 27 26.5Z" fill="#333333"/>
</svg>
