<svg width="24" height="22" viewBox="0 0 24 22" fill="none" xmlns="http://www.w3.org/2000/svg">
<path fill-rule="evenodd" clip-rule="evenodd" d="M23.7858 5.41567C23.6754 5.2532 23.528 5.12041 23.3562 5.02867C23.1844 4.93692 22.9934 4.88896 22.7994 4.88889H6.39943L5.01467 1.50334C4.8331 1.0575 4.52564 0.676613 4.13128 0.408974C3.73692 0.141335 3.27341 -0.0010035 2.79953 5.32562e-06H0V2.44445H2.79953L8.49218 16.3595C8.58336 16.5821 8.73718 16.7723 8.93427 16.906C9.13136 17.0398 9.36291 17.1111 9.59975 17.1111H19.1995C19.6999 17.1111 20.1475 16.7946 20.3239 16.3191L23.9238 6.54134C23.9918 6.35632 24.0148 6.15726 23.9908 5.96121C23.9667 5.76516 23.8964 5.57797 23.7858 5.41567ZM18.3679 14.6667H10.4001L7.4002 7.33334H21.0678L18.3679 14.6667Z" fill="white"/>
<path d="M10.1997 22C11.1938 22 11.9997 21.1792 11.9997 20.1667C11.9997 19.1541 11.1938 18.3333 10.1997 18.3333C9.20564 18.3333 8.39978 19.1541 8.39978 20.1667C8.39978 21.1792 9.20564 22 10.1997 22Z" fill="white"/>
<path d="M20.3995 20.1667C20.3995 21.1792 19.5936 22 18.5995 22C17.6054 22 16.7996 21.1792 16.7996 20.1667C16.7996 19.1541 17.6054 18.3333 18.5995 18.3333C19.5936 18.3333 20.3995 19.1541 20.3995 20.1667Z" fill="white"/>
</svg>
