<svg width="18" height="19" viewBox="0 0 18 19" fill="none" xmlns="http://www.w3.org/2000/svg">
<path d="M2.25 3.5C1.85218 3.5 1.47064 3.65804 1.18934 3.93934C0.908035 4.22064 0.75 4.60218 0.75 5V13.25H2.25C2.25 13.8467 2.48705 14.419 2.90901 14.841C3.33097 15.2629 3.90326 15.5 4.5 15.5C5.09674 15.5 5.66903 15.2629 6.09099 14.841C6.51295 14.419 6.75 13.8467 6.75 13.25H11.25C11.25 13.8467 11.4871 14.419 11.909 14.841C12.331 15.2629 12.9033 15.5 13.5 15.5C14.0967 15.5 14.669 15.2629 15.091 14.841C15.5129 14.419 15.75 13.8467 15.75 13.25H17.25V9.5L15 6.5H12.75V3.5H2.25ZM12.75 7.625H14.625L16.1025 9.5H12.75V7.625ZM4.5 12.125C4.79837 12.125 5.08452 12.2435 5.2955 12.4545C5.50647 12.6655 5.625 12.9516 5.625 13.25C5.625 13.5484 5.50647 13.8345 5.2955 14.0455C5.08452 14.2565 4.79837 14.375 4.5 14.375C4.20163 14.375 3.91548 14.2565 3.7045 14.0455C3.49353 13.8345 3.375 13.5484 3.375 13.25C3.375 12.9516 3.49353 12.6655 3.7045 12.4545C3.91548 12.2435 4.20163 12.125 4.5 12.125ZM13.5 12.125C13.7984 12.125 14.0845 12.2435 14.2955 12.4545C14.5065 12.6655 14.625 12.9516 14.625 13.25C14.625 13.5484 14.5065 13.8345 14.2955 14.0455C14.0845 14.2565 13.7984 14.375 13.5 14.375C13.2016 14.375 12.9155 14.2565 12.7045 14.0455C12.4935 13.8345 12.375 13.5484 12.375 13.25C12.375 12.9516 12.4935 12.6655 12.7045 12.4545C12.9155 12.2435 13.2016 12.125 13.5 12.125Z" fill="#333333"/>
</svg>
