<svg width="36" height="30" viewBox="0 0 36 30" fill="none" xmlns="http://www.w3.org/2000/svg">
<g clip-path="url(#clip0)">
<path d="M35.7136 9.2725C25.7478 -0.00919914 10.2481 -0.00580072 0.286265 9.2725C-0.0883604 9.62141 -0.0956729 10.2122 0.266577 10.5741L2.19258 12.4982C2.53795 12.8437 3.0937 12.8511 3.45258 12.5197C11.6606 4.94799 24.3382 4.94629 32.5479 12.5197C32.9068 12.8511 33.4625 12.8431 33.8079 12.4982L35.7339 10.5741C36.0956 10.2122 36.0883 9.62141 35.7136 9.2725ZM18 20.4375C16.0115 20.4375 14.4 22.0603 14.4 24.0625C14.4 26.0647 16.0115 27.6875 18 27.6875C19.9884 27.6875 21.6 26.0647 21.6 24.0625C21.6 22.0603 19.9884 20.4375 18 20.4375ZM29.4001 15.7029C22.9168 9.92953 13.0758 9.93576 6.59976 15.7029C6.21164 16.0484 6.19926 16.6482 6.5677 17.0141L8.50495 18.9394C8.84245 19.2747 9.38583 19.2973 9.74526 18.9847C14.4675 14.8743 21.5431 14.8833 26.2541 18.9847C26.6135 19.2973 27.1569 19.2752 27.4944 18.9394L29.4316 17.0141C29.8006 16.6482 29.7877 16.0479 29.4001 15.7029Z" fill="#BDBDBD"/>
</g>
<defs>
<clipPath id="clip0">
<rect width="36" height="29" fill="white" transform="translate(0 0.5)"/>
</clipPath>
</defs>
</svg>
