<svg width="39" height="23" viewBox="0 0 39 23" fill="none" xmlns="http://www.w3.org/2000/svg">
<path d="M8.62402 22.4688C6.3584 22.4688 4.4834 21.8633 2.99902 20.6523C1.52441 19.4316 0.75293 17.8643 0.68457 15.9502H4.77148C4.89844 16.8486 5.31836 17.5762 6.03125 18.1328C6.75391 18.6895 7.62793 18.9678 8.65332 18.9678C9.80566 18.9678 10.7432 18.6064 11.4658 17.8838C12.1982 17.1514 12.5645 16.209 12.5645 15.0566C12.5645 13.8848 12.2031 12.9277 11.4805 12.1855C10.7578 11.4434 9.8252 11.0723 8.68262 11.0723C7.88184 11.0723 7.1543 11.248 6.5 11.5996C5.85547 11.9414 5.34766 12.415 4.97656 13.0205H1.02148L2.06152 0.862305H15.5088V4.37793H5.5332L5.0498 10.1641H5.1377C5.57715 9.44141 6.20215 8.875 7.0127 8.46484C7.83301 8.05469 8.77539 7.84961 9.83984 7.84961C11.8613 7.84961 13.5215 8.51855 14.8203 9.85645C16.1289 11.1846 16.7832 12.8789 16.7832 14.9395C16.7832 17.1758 16.0264 18.9922 14.5127 20.3887C13.0088 21.7754 11.0459 22.4688 8.62402 22.4688ZM38.4043 13.123C38.4043 16.0039 37.5742 18.2646 35.9141 19.9053C34.2637 21.5459 31.9688 22.3662 29.0293 22.3662C25.8652 22.3662 23.375 21.3896 21.5586 19.4365C19.752 17.4834 18.8486 14.793 18.8486 11.3652C18.8486 7.98633 19.7471 5.33008 21.5439 3.39648C23.3506 1.46289 25.8115 0.496094 28.9268 0.496094C31.3877 0.496094 33.4727 1.16016 35.1816 2.48828C36.8906 3.81641 37.9014 5.5498 38.2139 7.68848H33.7754C33.4531 6.58496 32.8623 5.7207 32.0029 5.0957C31.1533 4.4707 30.1328 4.1582 28.9414 4.1582C27.1934 4.1582 25.8262 4.78809 24.8398 6.04785C23.8535 7.30762 23.3604 9.06055 23.3604 11.3066C23.3604 13.5918 23.873 15.3936 24.8984 16.7119C25.9336 18.0303 27.335 18.6895 29.1025 18.6895C30.5479 18.6895 31.7246 18.2842 32.6328 17.4736C33.5508 16.6631 34.0342 15.6035 34.083 14.2949L34.0977 13.958H29.498V10.7354H38.4043V13.123Z" fill="#BDBDBD"/>
</svg>
