<svg width="41" height="40" viewBox="0 0 41 40" fill="none" xmlns="http://www.w3.org/2000/svg">
<path d="M33.8334 13.3333C33.8334 12.4493 33.4822 11.6014 32.8571 10.9763C32.2319 10.3512 31.3841 10 30.5 10H7.16671C6.28265 10 5.43481 10.3512 4.80968 10.9763C4.18456 11.6014 3.83337 12.4493 3.83337 13.3333V26.6667C3.83337 27.5507 4.18456 28.3986 4.80968 29.0237C5.43481 29.6488 6.28265 30 7.16671 30H30.5C31.3841 30 32.2319 29.6488 32.8571 29.0237C33.4822 28.3986 33.8334 27.5507 33.8334 26.6667V23.3333H37.1667V16.6667H33.8334V13.3333ZM8.83337 25V15H13.8334L20.5 25H8.83337Z" fill="#BDBDBD"/>
</svg>
