<svg width="25" height="25" viewBox="0 0 25 25" fill="none" xmlns="http://www.w3.org/2000/svg">
<path d="M12.9119 9.37579C11.1915 9.37579 9.78764 10.7797 9.78764 12.5C9.78764 14.2203 11.1915 15.6242 12.9119 15.6242C14.6322 15.6242 16.0361 14.2203 16.0361 12.5C16.0361 10.7797 14.6322 9.37579 12.9119 9.37579ZM22.2822 12.5C22.2822 11.2063 22.2939 9.92423 22.2212 8.63283C22.1486 7.13283 21.8064 5.80158 20.7095 4.7047C19.6103 3.60548 18.2814 3.26564 16.7814 3.19298C15.4876 3.12033 14.2056 3.13204 12.9142 3.13204C11.6204 3.13204 10.3384 3.12033 9.04701 3.19298C7.54701 3.26564 6.21576 3.60783 5.11889 4.7047C4.01967 5.80392 3.67982 7.13283 3.60717 8.63283C3.53451 9.92658 3.54623 11.2086 3.54623 12.5C3.54623 13.7914 3.53451 15.0758 3.60717 16.3672C3.67982 17.8672 4.02201 19.1985 5.11889 20.2953C6.2181 21.3945 7.54701 21.7344 9.04701 21.807C10.3408 21.8797 11.6228 21.868 12.9142 21.868C14.2079 21.868 15.49 21.8797 16.7814 21.807C18.2814 21.7344 19.6126 21.3922 20.7095 20.2953C21.8087 19.1961 22.1486 17.8672 22.2212 16.3672C22.2962 15.0758 22.2822 13.7938 22.2822 12.5ZM12.9119 17.307C10.2517 17.307 8.10482 15.1602 8.10482 12.5C8.10482 9.83986 10.2517 7.69298 12.9119 7.69298C15.572 7.69298 17.7189 9.83986 17.7189 12.5C17.7189 15.1602 15.572 17.307 12.9119 17.307ZM17.9158 8.61876C17.2947 8.61876 16.7931 8.1172 16.7931 7.49611C16.7931 6.87501 17.2947 6.37345 17.9158 6.37345C18.5369 6.37345 19.0384 6.87501 19.0384 7.49611C19.0386 7.64359 19.0097 7.78966 18.9533 7.92595C18.897 8.06224 18.8143 8.18607 18.71 8.29036C18.6057 8.39464 18.4819 8.47733 18.3456 8.53368C18.2093 8.59004 18.0632 8.61895 17.9158 8.61876Z" fill="#B3B3B3"/>
</svg>
