<svg width="162" height="26" viewBox="0 0 162 26" fill="none" xmlns="http://www.w3.org/2000/svg">
<path d="M14.5781 6.79688C16.6615 6.79688 18.2604 7.59896 19.375 9.20312L19.25 9.28125C19.1667 9.33333 19.0781 9.39583 18.9844 9.46875C18.8906 9.54167 18.7708 9.63542 18.625 9.75C18.4896 9.86458 18.3542 10 18.2188 10.1562C18.0938 10.3021 17.9583 10.4688 17.8125 10.6562C17.6667 10.8333 17.5312 11.0365 17.4062 11.2656C17.2917 11.4948 17.1823 11.7396 17.0781 12C16.9844 12.25 16.9062 12.5312 16.8438 12.8438C16.7917 13.1562 16.7656 13.4792 16.7656 13.8125C16.7656 14.4792 16.875 15.1042 17.0938 15.6875C17.3229 16.2708 17.5781 16.7396 17.8594 17.0938C18.151 17.4375 18.474 17.7448 18.8281 18.0156C19.1823 18.276 19.4479 18.4531 19.625 18.5469C19.8021 18.6406 19.9271 18.6979 20 18.7188C19.9792 18.8021 19.9219 18.9844 19.8281 19.2656C19.7344 19.5365 19.5469 19.9583 19.2656 20.5312C18.9948 21.1042 18.6875 21.6458 18.3438 22.1562C18.0208 22.625 17.75 23 17.5312 23.2812C17.3125 23.5521 17.0365 23.8542 16.7031 24.1875C16.3802 24.5104 16.0417 24.75 15.6875 24.9062C15.3438 25.0625 14.974 25.1406 14.5781 25.1406C14.0469 25.1406 13.4115 24.9792 12.6719 24.6562C11.9427 24.3333 11.2552 24.1719 10.6094 24.1719C9.96354 24.1719 9.25 24.3385 8.46875 24.6719C7.6875 25.0052 7.0625 25.1719 6.59375 25.1719C6.22917 25.1719 5.88021 25.099 5.54688 24.9531C5.22396 24.8073 4.89583 24.5729 4.5625 24.25C4.23958 23.9167 3.96354 23.6042 3.73438 23.3125C3.50521 23.0208 3.20312 22.6146 2.82812 22.0938C2.08854 21.0417 1.47917 19.7969 1 18.3594C0.53125 16.9115 0.296875 15.4792 0.296875 14.0625C0.296875 12.9271 0.46875 11.8958 0.8125 10.9688C1.16667 10.0312 1.63021 9.27083 2.20312 8.6875C2.78646 8.10417 3.43229 7.65625 4.14062 7.34375C4.85938 7.02083 5.60417 6.85938 6.375 6.85938C6.95833 6.85938 7.6875 7.03646 8.5625 7.39062C9.4375 7.73438 10.0208 7.90625 10.3125 7.90625C10.5625 7.90625 11.1667 7.72396 12.125 7.35938C13.0833 6.98438 13.901 6.79688 14.5781 6.79688ZM13.7188 4.8125C13.3125 5.3125 12.7969 5.72396 12.1719 6.04688C11.5573 6.36979 10.9792 6.53125 10.4375 6.53125C10.3229 6.53125 10.2135 6.52083 10.1094 6.5C10.0781 6.375 10.0625 6.22917 10.0625 6.0625C10.0625 5.47917 10.1875 4.89583 10.4375 4.3125C10.6979 3.71875 11.0156 3.20833 11.3906 2.78125C11.8281 2.26042 12.3802 1.82812 13.0469 1.48438C13.7135 1.14062 14.349 0.958333 14.9531 0.9375C14.9844 1.08333 15 1.24479 15 1.42188C15 2.65104 14.5729 3.78125 13.7188 4.8125ZM33.4688 25V8.75H36.1875V25H33.4688ZM34.8281 6.01562C34.3698 6.01562 33.974 5.84896 33.6406 5.51562C33.3073 5.18229 33.1406 4.78646 33.1406 4.32812C33.1406 3.85938 33.3073 3.46354 33.6406 3.14062C33.974 2.80729 34.3698 2.64062 34.8281 2.64062C35.2969 2.64062 35.6979 2.80729 36.0312 3.14062C36.3646 3.46354 36.5312 3.85938 36.5312 4.32812C36.5312 4.78646 36.3646 5.18229 36.0312 5.51562C35.6979 5.84896 35.2969 6.01562 34.8281 6.01562ZM40.2812 2.45312H48.3281C50.4427 2.45312 52.1719 3.13021 53.5156 4.48438C54.8698 5.82812 55.5469 7.5625 55.5469 9.6875C55.5469 11.8229 54.8698 13.5677 53.5156 14.9219C52.1615 16.276 50.4219 16.9531 48.2969 16.9531H43.0938V25H40.2812V2.45312ZM43.0938 4.95312V14.4531H47.5938C49.1979 14.4531 50.4427 14.0365 51.3281 13.2031C52.2135 12.3594 52.6562 11.1875 52.6562 9.6875C52.6562 8.1875 52.2135 7.02604 51.3281 6.20312C50.4531 5.36979 49.2083 4.95312 47.5938 4.95312H43.0938ZM58.5 25V2.45312H61.2188V11.3438H61.2812C61.7396 10.4271 62.4062 9.71875 63.2812 9.21875C64.1667 8.71875 65.2188 8.46875 66.4375 8.46875C68.2083 8.46875 69.6042 9.01562 70.625 10.1094C71.6458 11.2031 72.1562 12.6667 72.1562 14.5V25H69.4375V15C69.4375 13.6875 69.1094 12.6719 68.4531 11.9531C67.8073 11.2344 66.8542 10.875 65.5938 10.875C64.25 10.875 63.1823 11.2969 62.3906 12.1406C61.6094 12.9844 61.2188 14.1146 61.2188 15.5312V25H58.5ZM82.3438 25.2812C80.0729 25.2812 78.25 24.526 76.875 23.0156C75.5 21.4948 74.8125 19.4479 74.8125 16.875C74.8125 14.3021 75.5 12.2604 76.875 10.75C78.25 9.22917 80.0729 8.46875 82.3438 8.46875C84.6042 8.46875 86.4219 9.22917 87.7969 10.75C89.1719 12.2604 89.8594 14.3021 89.8594 16.875C89.8594 19.4375 89.1719 21.4792 87.7969 23C86.4219 24.5208 84.6042 25.2812 82.3438 25.2812ZM78.8594 21.2969C79.724 22.3594 80.8854 22.8906 82.3438 22.8906C83.8021 22.8906 84.9583 22.3646 85.8125 21.3125C86.6667 20.25 87.0938 18.7708 87.0938 16.875C87.0938 14.9792 86.6667 13.5052 85.8125 12.4531C84.9583 11.3906 83.8021 10.8594 82.3438 10.8594C80.8854 10.8594 79.724 11.3906 78.8594 12.4531C78.0052 13.5156 77.5781 14.9896 77.5781 16.875C77.5781 18.7604 78.0052 20.2344 78.8594 21.2969ZM92.6094 25V8.75H95.1719V11.3438H95.2344C95.7031 10.4375 96.375 9.73438 97.25 9.23438C98.125 8.72396 99.1719 8.46875 100.391 8.46875C102.161 8.46875 103.542 9.00521 104.531 10.0781C105.521 11.1406 106.016 12.599 106.016 14.4531V25H103.297V14.9375C103.297 13.6146 102.984 12.6094 102.359 11.9219C101.734 11.224 100.802 10.875 99.5625 10.875C98.2812 10.875 97.2552 11.2917 96.4844 12.125C95.7135 12.9583 95.3281 14.0625 95.3281 15.4375V25H92.6094ZM116 10.8281C114.74 10.8281 113.693 11.2656 112.859 12.1406C112.036 13.0052 111.583 14.1198 111.5 15.4844H120.328C120.297 14.1094 119.885 12.9896 119.094 12.125C118.302 11.2604 117.271 10.8281 116 10.8281ZM120.266 20.3438H122.938C122.698 21.7812 121.948 22.9635 120.688 23.8906C119.438 24.8177 117.932 25.2812 116.172 25.2812C113.849 25.2812 112.021 24.5312 110.688 23.0312C109.354 21.5312 108.688 19.5 108.688 16.9375C108.688 14.3958 109.354 12.349 110.688 10.7969C112.031 9.24479 113.818 8.46875 116.047 8.46875C118.234 8.46875 119.964 9.20312 121.234 10.6719C122.505 12.1406 123.141 14.1094 123.141 16.5781V17.6094H111.484V17.7656C111.484 19.3281 111.911 20.5781 112.766 21.5156C113.62 22.4531 114.776 22.9219 116.234 22.9219C117.255 22.9219 118.125 22.6875 118.844 22.2188C119.562 21.75 120.036 21.125 120.266 20.3438ZM138.266 25V5.4375H138.203L132.234 9.73438V6.76562L138.234 2.45312H140.984V25H138.266ZM146.562 8.95312C146.562 6.98438 147.271 5.34896 148.688 4.04688C150.104 2.73438 151.875 2.07812 154 2.07812C156.01 2.07812 157.714 2.67708 159.109 3.875C160.505 5.07292 161.203 6.53646 161.203 8.26562C161.203 9.51562 160.859 10.7188 160.172 11.875C159.484 13.0312 158.193 14.5885 156.297 16.5469L150.594 22.4375V22.5H161.578V25H146.703V23.0625L154.641 14.7031C156.151 13.1094 157.151 11.901 157.641 11.0781C158.141 10.2552 158.391 9.375 158.391 8.4375C158.391 7.35417 157.953 6.43229 157.078 5.67188C156.214 4.91146 155.161 4.53125 153.922 4.53125C152.599 4.53125 151.495 4.95312 150.609 5.79688C149.724 6.64062 149.281 7.69271 149.281 8.95312V8.96875H146.562V8.95312Z" fill="#333333"/>
</svg>
