<svg width="78" height="27" viewBox="0 0 78 27" fill="none" xmlns="http://www.w3.org/2000/svg">
<path d="M42.959 13.7017H45.8676L41.8413 18.6644L46.6297 24.2637H43.3781L39.0596 19.1451V24.2637H36.4558V13.7017H39.0596V18.5735L42.959 13.7017Z" fill="#B3B3B3"/>
<path d="M53.5639 24.2637H50.8691L55.4117 13.7017H58.1577L62.7387 24.2637H60.0568L56.7975 16.2968L55.771 18.827L53.5639 24.2637Z" fill="#B3B3B3"/>
<path d="M75.5464 13.7017H77.9988V24.2637H75.7892L70.2652 17.703V24.2637H67.825V13.7017H69.9981L75.5464 20.2883V13.7017Z" fill="#B3B3B3"/>
<path d="M20.5059 26.9034H19.4811H8.02225H7.34941H0L13.819 0.5L27.7104 26.9034H20.5059ZM10.8481 20.7351H16.6552L13.7569 14.3841L10.8481 20.7351Z" fill="#B3B3B3"/>
<path d="M41.7601 8.4999L41.7521 5.1399L40.1041 7.9079H39.5201L37.8801 5.2119V8.4999H36.6641V2.8999H37.7361L39.8321 6.3799L41.8961 2.8999H42.9601L42.9761 8.4999H41.7601Z" fill="#B3B3B3"/>
<path d="M48.3927 7.2999H45.7927L45.2967 8.4999H43.9687L46.4647 2.8999H47.7447L50.2487 8.4999H48.8887L48.3927 7.2999ZM47.9847 6.3159L47.0967 4.1719L46.2087 6.3159H47.9847Z" fill="#B3B3B3"/>
<path d="M51.2297 2.8999H53.7737C54.3817 2.8999 54.9177 3.01724 55.3817 3.2519C55.851 3.48124 56.2137 3.80657 56.4697 4.2279C56.731 4.64924 56.8617 5.1399 56.8617 5.6999C56.8617 6.2599 56.731 6.75057 56.4697 7.1719C56.2137 7.59324 55.851 7.92124 55.3817 8.1559C54.9177 8.38524 54.3817 8.4999 53.7737 8.4999H51.2297V2.8999ZM53.7097 7.4359C54.2697 7.4359 54.715 7.28124 55.0457 6.9719C55.3817 6.65724 55.5497 6.23324 55.5497 5.6999C55.5497 5.16657 55.3817 4.74524 55.0457 4.4359C54.715 4.12124 54.2697 3.9639 53.7097 3.9639H52.5257V7.4359H53.7097Z" fill="#B3B3B3"/>
<path d="M62.5751 7.4599V8.4999H58.2391V2.8999H62.4711V3.9399H59.5271V5.1559H62.1271V6.1639H59.5271V7.4599H62.5751Z" fill="#B3B3B3"/>
<path d="M70.7839 5.5879C71.1039 5.68924 71.3545 5.8599 71.5359 6.0999C71.7172 6.33457 71.8079 6.62524 71.8079 6.9719C71.8079 7.46257 71.6159 7.84124 71.2319 8.1079C70.8532 8.36924 70.2985 8.4999 69.5679 8.4999H66.6719V2.8999H69.4079C70.0905 2.8999 70.6132 3.03057 70.9759 3.2919C71.3439 3.55324 71.5279 3.9079 71.5279 4.3559C71.5279 4.6279 71.4612 4.87057 71.3279 5.0839C71.1999 5.29724 71.0185 5.46524 70.7839 5.5879ZM67.9599 3.8759V5.1959H69.2479C69.5679 5.1959 69.8105 5.1399 69.9759 5.0279C70.1412 4.9159 70.2239 4.75057 70.2239 4.5319C70.2239 4.31324 70.1412 4.15057 69.9759 4.0439C69.8105 3.9319 69.5679 3.8759 69.2479 3.8759H67.9599ZM69.4719 7.5239C69.8132 7.5239 70.0692 7.4679 70.2399 7.3559C70.4159 7.2439 70.5039 7.07057 70.5039 6.8359C70.5039 6.3719 70.1599 6.1399 69.4719 6.1399H67.9599V7.5239H69.4719Z" fill="#B3B3B3"/>
<path d="M75.7599 6.5159V8.4999H74.4639V6.4999L72.2959 2.8999H73.6719L75.1679 5.3879L76.6639 2.8999H77.9359L75.7599 6.5159Z" fill="#B3B3B3"/>
</svg>
