<svg width="16" height="16" viewBox="0 0 16 16" fill="none" xmlns="http://www.w3.org/2000/svg">
<path d="M3.33331 6.77997C3.33297 6.87957 3.35496 6.97798 3.39764 7.06796C3.44033 7.15795 3.50263 7.23723 3.57998 7.29997L7.57998 10.52C7.69927 10.618 7.8489 10.6716 8.00331 10.6716C8.15773 10.6716 8.30736 10.618 8.42665 10.52L12.4266 7.18664C12.5628 7.07348 12.6484 6.91087 12.6647 6.73459C12.6809 6.5583 12.6265 6.38278 12.5133 6.24664C12.4002 6.11049 12.2375 6.02488 12.0613 6.00863C11.885 5.99237 11.7095 6.04681 11.5733 6.15997L7.99998 9.13997L4.42665 6.25997C4.32879 6.17845 4.20963 6.12667 4.08326 6.11075C3.9569 6.09483 3.82861 6.11544 3.7136 6.17014C3.59858 6.22485 3.50164 6.31135 3.43424 6.41943C3.36685 6.5275 3.33183 6.65262 3.33331 6.77997Z" fill="#767676"/>
</svg>
