<svg width="30" height="30" viewBox="0 0 30 30" fill="none" xmlns="http://www.w3.org/2000/svg">
<path fill-rule="evenodd" clip-rule="evenodd" d="M15.3562 22.7016H16.9568C16.9568 22.7016 17.437 22.6192 17.6771 22.3718C17.9172 22.1244 17.9172 21.6297 17.9172 21.6297C17.9172 21.6297 17.9172 19.4858 18.8776 19.156C19.838 18.8262 21.1185 21.2999 22.399 22.2069C23.3594 22.949 24.0797 22.7841 24.0797 22.7841L27.6011 22.7016C27.6011 22.7016 29.4418 22.6192 28.5615 21.0525C28.4814 20.97 28.0813 19.9806 25.9204 17.9191C23.6795 15.7752 23.9996 16.1875 26.6407 12.477C28.2413 10.2506 28.8816 8.93131 28.7215 8.27165C28.5615 7.69445 27.361 7.85936 27.361 7.85936H23.3594C23.3594 7.85936 23.0393 7.77691 22.8792 7.94182C22.6391 8.10673 22.5591 8.35411 22.5591 8.35411C22.5591 8.35411 21.9188 10.0857 21.1185 11.5699C19.3578 14.6208 18.6375 14.7858 18.3974 14.6208C17.7571 14.2086 17.9172 12.8068 17.9172 11.8998C17.9172 8.9313 18.3974 7.69445 17.0369 7.36462C16.6367 7.28216 16.3166 7.19971 15.1961 7.19971C13.7555 7.19971 12.5551 7.19971 11.9148 7.52954C11.4346 7.77691 11.1145 8.27165 11.3546 8.27165C11.5947 8.27165 12.2349 8.43656 12.5551 8.84885C12.8752 9.59096 12.8752 10.8278 12.8752 10.8278C12.8752 10.8278 13.1153 14.3735 12.315 14.7858C11.7547 15.1156 11.0345 14.4559 9.43382 11.6524C8.6335 10.2506 7.99325 8.60148 7.99325 8.60148C7.99325 8.60148 7.91321 8.27165 7.67312 8.10674C7.43302 7.94182 7.03286 7.85936 7.03286 7.85936H3.27136C3.27136 7.85936 2.71114 7.85936 2.47104 8.10674C2.31098 8.35411 2.47104 8.76639 2.47104 8.76639C2.47104 8.76639 5.43222 15.8577 8.79357 19.4858C11.9148 22.949 15.3562 22.7016 15.3562 22.7016V22.7016Z" fill="#366DA0"/>
</svg>
