<svg width="25" height="25" viewBox="0 0 25 25" fill="none" xmlns="http://www.w3.org/2000/svg">
<path fill-rule="evenodd" clip-rule="evenodd" d="M13.1969 18.6613H14.4774C14.4774 18.6613 14.8616 18.5953 15.0537 18.3974C15.2458 18.1995 15.2458 17.8038 15.2458 17.8038C15.2458 17.8038 15.2458 16.0886 16.0141 15.8248C16.7824 15.5609 17.8068 17.5399 18.8312 18.2655C19.5995 18.8592 20.1757 18.7273 20.1757 18.7273L22.9928 18.6613C22.9928 18.6613 24.4654 18.5953 23.7612 17.342C23.6971 17.276 23.377 16.4844 21.6483 14.8353C19.8556 13.1202 20.1117 13.45 22.2245 10.4816C23.5051 8.70049 24.0173 7.64504 23.8892 7.11732C23.7612 6.65556 22.8008 6.78749 22.8008 6.78749H19.5995C19.5995 6.78749 19.3434 6.72152 19.2153 6.85346C19.0233 6.98539 18.9592 7.18328 18.9592 7.18328C18.9592 7.18328 18.447 8.56856 17.8068 9.75594C16.3982 12.1967 15.822 12.3286 15.6299 12.1967C15.1177 11.8668 15.2458 10.7454 15.2458 10.0198C15.2458 7.64504 15.6299 6.65556 14.5415 6.3917C14.2213 6.32573 13.9652 6.25977 13.0689 6.25977C11.9164 6.25977 10.956 6.25977 10.4438 6.52363C10.0597 6.72152 9.80358 7.11732 9.99566 7.11732C10.1877 7.11732 10.6999 7.24925 10.956 7.57908C11.2121 8.17277 11.2121 9.16225 11.2121 9.16225C11.2121 9.16225 11.4042 11.9988 10.764 12.3286C10.3158 12.5925 9.73956 12.0647 8.45905 9.82191C7.81879 8.70049 7.30658 7.38118 7.30658 7.38118C7.30658 7.38118 7.24256 7.11732 7.05048 6.98539C6.85841 6.85346 6.53828 6.78749 6.53828 6.78749H3.52908C3.52908 6.78749 3.0809 6.78749 2.88882 6.98539C2.76077 7.18329 2.88882 7.51311 2.88882 7.51311C2.88882 7.51311 5.25777 13.1862 7.94684 16.0886C10.4438 18.8592 13.1969 18.6613 13.1969 18.6613Z" fill="#B3B3B3"/>
</svg>
