<svg width="20" height="20" viewBox="0 0 20 20" fill="none" xmlns="http://www.w3.org/2000/svg">
<path d="M16.7998 5.69988C14.3998 1.99988 9.49978 0.899878 5.69978 3.19988C1.99978 5.49988 0.79978 10.4999 3.19978 14.1999L3.39978 14.4999L2.59978 17.4999L5.59978 16.6999L5.89978 16.8999C7.19978 17.5999 8.59978 17.9999 9.99978 17.9999C11.4998 17.9999 12.9998 17.5999 14.2998 16.7999C17.9998 14.3999 19.0998 9.49988 16.7998 5.69988ZM14.6998 13.3999C14.2998 13.9999 13.7998 14.3999 13.0998 14.4999C12.6998 14.4999 12.1998 14.6999 10.1998 13.8999C8.49978 13.0999 7.09978 11.7999 6.09978 10.2999C5.49978 9.59988 5.19978 8.69988 5.09978 7.79988C5.09978 6.99988 5.39978 6.29988 5.89978 5.79988C6.09978 5.59988 6.29978 5.49988 6.49978 5.49988H6.99978C7.19978 5.49988 7.39978 5.49988 7.49978 5.89988C7.69978 6.39988 8.19978 7.59988 8.19978 7.69988C8.29978 7.79988 8.29978 7.99988 8.19978 8.09988C8.29978 8.29988 8.19978 8.49988 8.09978 8.59988C7.99978 8.69988 7.89978 8.89988 7.79978 8.99988C7.59978 9.09988 7.49978 9.29988 7.59978 9.49988C7.99978 10.0999 8.49978 10.6999 8.99978 11.1999C9.59978 11.6999 10.1998 12.0999 10.8998 12.3999C11.0998 12.4999 11.2998 12.4999 11.3998 12.2999C11.4998 12.0999 11.9998 11.5999 12.1998 11.3999C12.3998 11.1999 12.4998 11.1999 12.6998 11.2999L14.2998 12.0999C14.4998 12.1999 14.6998 12.2999 14.7998 12.3999C14.8998 12.6999 14.8998 13.0999 14.6998 13.3999Z" fill="#29D345"/>
</svg>
