<svg width="120" height="120" fill="none" xmlns="http://www.w3.org/2000/svg"><rect width="120" height="120" rx="9.333" fill="#F2F2F2"/><path d="M45.63 73l-2.077-6.608H33.98L31.904 73H26.05l9.459-27.244h6.702L51.69 73h-6.06zM38.7 50.967l-3.492 11.158h7.117l-3.492-11.158H38.7zM59.148 73V50.986h-.114l-6.947 4.795v-5.135l7.042-4.89h5.664V73h-5.645zm18.389-11.895V56.99h3.304c1.297 0 2.348-.353 3.153-1.058.806-.705 1.208-1.617 1.208-2.737s-.383-2.008-1.151-2.662c-.768-.668-1.85-1.001-3.248-1.001-1.321 0-2.391.359-3.21 1.076-.818.718-1.264 1.674-1.34 2.87h-5.249c.101-2.53 1.064-4.55 2.89-6.06 1.824-1.511 4.21-2.266 7.155-2.266 2.844 0 5.141.667 6.891 2.001 1.762 1.334 2.643 3.09 2.643 5.268 0 1.648-.516 3.046-1.548 4.191s-2.391 1.87-4.078 2.171v.114c2.052.176 3.675.85 4.871 2.02 1.208 1.158 1.813 2.674 1.813 4.55 0 2.43-1.001 4.393-3.002 5.89-1.99 1.498-4.563 2.247-7.722 2.247-3.059 0-5.532-.768-7.42-2.303-1.876-1.536-2.883-3.569-3.021-6.099h5.456c.088 1.159.58 2.084 1.473 2.776.906.692 2.102 1.038 3.587 1.038 1.422 0 2.587-.365 3.493-1.095.906-.73 1.36-1.668 1.36-2.813 0-1.246-.441-2.222-1.322-2.926-.881-.718-2.09-1.077-3.625-1.077h-3.361z" fill="#1F1F1F"/><rect x="6.667" y="6.667" width="106.667" height="106.667" rx="5.333" stroke="#1F1F1F" stroke-width="4"/></svg>