<svg width="151" height="26" viewBox="0 0 151 26" fill="none" xmlns="http://www.w3.org/2000/svg">
<path d="M14.3281 6.79688C16.4115 6.79688 18.0104 7.59896 19.125 9.20312L19 9.28125C18.9167 9.33333 18.8281 9.39583 18.7344 9.46875C18.6406 9.54167 18.5208 9.63542 18.375 9.75C18.2396 9.86458 18.1042 10 17.9688 10.1562C17.8438 10.3021 17.7083 10.4688 17.5625 10.6562C17.4167 10.8333 17.2812 11.0365 17.1562 11.2656C17.0417 11.4948 16.9323 11.7396 16.8281 12C16.7344 12.25 16.6562 12.5312 16.5938 12.8438C16.5417 13.1562 16.5156 13.4792 16.5156 13.8125C16.5156 14.4792 16.625 15.1042 16.8438 15.6875C17.0729 16.2708 17.3281 16.7396 17.6094 17.0938C17.901 17.4375 18.224 17.7448 18.5781 18.0156C18.9323 18.276 19.1979 18.4531 19.375 18.5469C19.5521 18.6406 19.6771 18.6979 19.75 18.7188C19.7292 18.8021 19.6719 18.9844 19.5781 19.2656C19.4844 19.5365 19.2969 19.9583 19.0156 20.5312C18.7448 21.1042 18.4375 21.6458 18.0938 22.1562C17.7708 22.625 17.5 23 17.2812 23.2812C17.0625 23.5521 16.7865 23.8542 16.4531 24.1875C16.1302 24.5104 15.7917 24.75 15.4375 24.9062C15.0938 25.0625 14.724 25.1406 14.3281 25.1406C13.7969 25.1406 13.1615 24.9792 12.4219 24.6562C11.6927 24.3333 11.0052 24.1719 10.3594 24.1719C9.71354 24.1719 9 24.3385 8.21875 24.6719C7.4375 25.0052 6.8125 25.1719 6.34375 25.1719C5.97917 25.1719 5.63021 25.099 5.29688 24.9531C4.97396 24.8073 4.64583 24.5729 4.3125 24.25C3.98958 23.9167 3.71354 23.6042 3.48438 23.3125C3.25521 23.0208 2.95312 22.6146 2.57812 22.0938C1.83854 21.0417 1.22917 19.7969 0.75 18.3594C0.28125 16.9115 0.046875 15.4792 0.046875 14.0625C0.046875 12.9271 0.21875 11.8958 0.5625 10.9688C0.916667 10.0312 1.38021 9.27083 1.95312 8.6875C2.53646 8.10417 3.18229 7.65625 3.89062 7.34375C4.60938 7.02083 5.35417 6.85938 6.125 6.85938C6.70833 6.85938 7.4375 7.03646 8.3125 7.39062C9.1875 7.73438 9.77083 7.90625 10.0625 7.90625C10.3125 7.90625 10.9167 7.72396 11.875 7.35938C12.8333 6.98438 13.651 6.79688 14.3281 6.79688ZM13.4688 4.8125C13.0625 5.3125 12.5469 5.72396 11.9219 6.04688C11.3073 6.36979 10.7292 6.53125 10.1875 6.53125C10.0729 6.53125 9.96354 6.52083 9.85938 6.5C9.82812 6.375 9.8125 6.22917 9.8125 6.0625C9.8125 5.47917 9.9375 4.89583 10.1875 4.3125C10.4479 3.71875 10.7656 3.20833 11.1406 2.78125C11.5781 2.26042 12.1302 1.82812 12.7969 1.48438C13.4635 1.14062 14.099 0.958333 14.7031 0.9375C14.7344 1.08333 14.75 1.24479 14.75 1.42188C14.75 2.65104 14.3229 3.78125 13.4688 4.8125ZM33.2188 25V8.75H35.9375V25H33.2188ZM34.5781 6.01562C34.1198 6.01562 33.724 5.84896 33.3906 5.51562C33.0573 5.18229 32.8906 4.78646 32.8906 4.32812C32.8906 3.85938 33.0573 3.46354 33.3906 3.14062C33.724 2.80729 34.1198 2.64062 34.5781 2.64062C35.0469 2.64062 35.4479 2.80729 35.7812 3.14062C36.1146 3.46354 36.2812 3.85938 36.2812 4.32812C36.2812 4.78646 36.1146 5.18229 35.7812 5.51562C35.4479 5.84896 35.0469 6.01562 34.5781 6.01562ZM40.0312 2.45312H48.0781C50.1927 2.45312 51.9219 3.13021 53.2656 4.48438C54.6198 5.82812 55.2969 7.5625 55.2969 9.6875C55.2969 11.8229 54.6198 13.5677 53.2656 14.9219C51.9115 16.276 50.1719 16.9531 48.0469 16.9531H42.8438V25H40.0312V2.45312ZM42.8438 4.95312V14.4531H47.3438C48.9479 14.4531 50.1927 14.0365 51.0781 13.2031C51.9635 12.3594 52.4062 11.1875 52.4062 9.6875C52.4062 8.1875 51.9635 7.02604 51.0781 6.20312C50.2031 5.36979 48.9583 4.95312 47.3438 4.95312H42.8438ZM62.0625 22.9688C63.3438 22.9688 64.4167 22.5729 65.2812 21.7812C66.1562 20.9792 66.5938 19.9948 66.5938 18.8281V17.5L62.25 17.7656C61.1562 17.8385 60.3073 18.1042 59.7031 18.5625C59.1094 19.0208 58.8125 19.6354 58.8125 20.4062C58.8125 21.1771 59.1094 21.7969 59.7031 22.2656C60.2969 22.7344 61.0833 22.9688 62.0625 22.9688ZM61.4531 25.2812C59.8385 25.2812 58.5312 24.8333 57.5312 23.9375C56.5417 23.0417 56.0469 21.8646 56.0469 20.4062C56.0469 19.0104 56.5573 17.8958 57.5781 17.0625C58.6094 16.2292 60.0625 15.7604 61.9375 15.6562L66.5938 15.3906V14.0312C66.5938 13.0417 66.2812 12.2656 65.6562 11.7031C65.0312 11.1406 64.1562 10.8594 63.0312 10.8594C62 10.8594 61.1615 11.0885 60.5156 11.5469C59.8698 11.9948 59.4583 12.625 59.2812 13.4375H56.6562C56.75 11.9896 57.375 10.8021 58.5312 9.875C59.6979 8.9375 61.2188 8.46875 63.0938 8.46875C65 8.46875 66.5104 8.94792 67.625 9.90625C68.75 10.8646 69.3125 12.151 69.3125 13.7656V25H66.7344V22.2031H66.6719C66.1823 23.1302 65.4635 23.875 64.5156 24.4375C63.5677 25 62.5469 25.2812 61.4531 25.2812ZM78.9219 25.2812C76.8385 25.2812 75.1562 24.5156 73.875 22.9844C72.6042 21.4531 71.9688 19.4167 71.9688 16.875C71.9688 14.3438 72.6042 12.3125 73.875 10.7812C75.1458 9.23958 76.8073 8.46875 78.8594 8.46875C80.0052 8.46875 81.0312 8.72917 81.9375 9.25C82.8438 9.77083 83.5417 10.4844 84.0312 11.3906H84.0938V2.45312H86.8125V25H84.2188V22.25H84.1719C83.6406 23.1979 82.9219 23.9427 82.0156 24.4844C81.1094 25.0156 80.0781 25.2812 78.9219 25.2812ZM79.4375 10.8594C78 10.8594 76.8594 11.4062 76.0156 12.5C75.1719 13.5833 74.75 15.0417 74.75 16.875C74.75 18.7188 75.1719 20.1823 76.0156 21.2656C76.8594 22.349 78 22.8906 79.4375 22.8906C80.8438 22.8906 81.974 22.3438 82.8281 21.25C83.6823 20.1458 84.1094 18.6875 84.1094 16.875C84.1094 15.0625 83.6771 13.6094 82.8125 12.5156C81.9583 11.4115 80.8333 10.8594 79.4375 10.8594ZM119.688 25H117.062V7.625H116.953L109.766 24.8438H107.391L100.203 7.625H100.094V25H97.4688V2.45312H100.734L108.516 21.2656H108.641L116.422 2.45312H119.688V25ZM123.781 25V8.75H126.5V25H123.781ZM125.141 6.01562C124.682 6.01562 124.286 5.84896 123.953 5.51562C123.62 5.18229 123.453 4.78646 123.453 4.32812C123.453 3.85938 123.62 3.46354 123.953 3.14062C124.286 2.80729 124.682 2.64062 125.141 2.64062C125.609 2.64062 126.01 2.80729 126.344 3.14062C126.677 3.46354 126.844 3.85938 126.844 4.32812C126.844 4.78646 126.677 5.18229 126.344 5.51562C126.01 5.84896 125.609 6.01562 125.141 6.01562ZM130.172 25V8.75H132.734V11.3438H132.797C133.266 10.4375 133.938 9.73438 134.812 9.23438C135.688 8.72396 136.734 8.46875 137.953 8.46875C139.724 8.46875 141.104 9.00521 142.094 10.0781C143.083 11.1406 143.578 12.599 143.578 14.4531V25H140.859V14.9375C140.859 13.6146 140.547 12.6094 139.922 11.9219C139.297 11.224 138.365 10.875 137.125 10.875C135.844 10.875 134.818 11.2917 134.047 12.125C133.276 12.9583 132.891 14.0625 132.891 15.4375V25H130.172ZM147.188 25V8.75H149.906V25H147.188ZM148.547 6.01562C148.089 6.01562 147.693 5.84896 147.359 5.51562C147.026 5.18229 146.859 4.78646 146.859 4.32812C146.859 3.85938 147.026 3.46354 147.359 3.14062C147.693 2.80729 148.089 2.64062 148.547 2.64062C149.016 2.64062 149.417 2.80729 149.75 3.14062C150.083 3.46354 150.25 3.85938 150.25 4.32812C150.25 4.78646 150.083 5.18229 149.75 5.51562C149.417 5.84896 149.016 6.01562 148.547 6.01562Z" fill="#333333"/>
</svg>
