<svg width="131" height="38" fill="none" xmlns="http://www.w3.org/2000/svg"><path d="M18.828 11.797c2.084 0 3.682.802 4.797 2.406l-.125.078a3.179 3.179 0 00-.266.188l-.359.281a3.74 3.74 0 00-.406.406c-.125.146-.26.313-.407.5a3.88 3.88 0 00-.406.61 9.892 9.892 0 00-.328.734c-.094.25-.172.531-.234.844a5.881 5.881 0 00-.078.968c0 .667.109 1.292.328 1.875.229.584.484 1.053.765 1.407.292.343.615.65.97.922.353.26.619.437.796.53.177.095.302.152.375.173-.02.083-.078.265-.172.547-.094.27-.281.692-.562 1.265a12.32 12.32 0 01-.922 1.625c-.323.469-.594.844-.813 1.125a11.58 11.58 0 01-.828.907 3.37 3.37 0 01-1.015.718 2.648 2.648 0 01-1.11.235c-.531 0-1.166-.162-1.906-.485-.73-.323-1.417-.484-2.063-.484-.646 0-1.359.166-2.14.5-.781.333-1.406.5-1.875.5a2.58 2.58 0 01-1.047-.219c-.323-.146-.651-.38-.985-.703a12.176 12.176 0 01-.828-.938c-.229-.291-.53-.697-.906-1.218-.74-1.052-1.349-2.297-1.828-3.735-.469-1.448-.703-2.88-.703-4.297 0-1.135.172-2.166.516-3.093.354-.938.817-1.698 1.39-2.281a6.36 6.36 0 011.938-1.344 5.394 5.394 0 012.234-.485c.583 0 1.313.178 2.188.532.874.343 1.458.515 1.75.515.25 0 .854-.182 1.812-.547.958-.375 1.776-.562 2.453-.562zm-.86-1.985a4.8 4.8 0 01-1.546 1.235c-.615.323-1.193.484-1.735.484-.114 0-.223-.01-.328-.031a1.814 1.814 0 01-.046-.438c0-.583.124-1.166.374-1.75.26-.593.579-1.104.954-1.53.437-.522.99-.954 1.656-1.298.666-.343 1.302-.526 1.906-.546.031.145.047.307.047.484 0 1.229-.427 2.36-1.281 3.39zM49.079 30h-6.625V12.719h-5.937V7.453h18.5v5.266h-5.938V30zm22.547 0h-8.594L56.188 7.453h7.624l3.61 16.266h.125l3.61-16.266h7.312L71.625 30z" fill="#fff"/><path d="M97.156 30v-3.344H86.062v-5.484c1.907-3.73 4.636-8.302 8.188-13.719h9.156v14.125h2.688v5.078h-2.688V30h-6.25zm-5.594-8.344v.188h5.782V11.797h-.125c-1.313 2.02-2.37 3.719-3.172 5.094-.802 1.364-1.63 2.953-2.484 4.765zM115.313 30h-6.624V7.453h6.624v9.563h.126l6.968-9.563h6.953l-7.421 10.016L129.703 30H122l-4.922-8.281-1.766 2.375V30z" fill="url(#paint0_linear)"/><defs><linearGradient id="paint0_linear" x1="65.5" y1="0" x2="65.5" y2="38" gradientUnits="userSpaceOnUse"><stop stop-color="#FC60FF"/><stop offset="1" stop-color="#1FB1A9"/></linearGradient></defs></svg>