<svg width="155" height="26" fill="none" xmlns="http://www.w3.org/2000/svg"><path d="M15.156 6.547c2.136 0 3.771.823 4.906 2.469l-.125.078c-.083.062-.171.13-.265.203a3.976 3.976 0 00-.36.281c-.145.115-.286.25-.421.406-.136.146-.282.313-.438.5a4.222 4.222 0 00-.406.641 6.84 6.84 0 00-.344.734c-.094.26-.172.553-.234.875a6.003 6.003 0 00-.078.985c0 .687.114 1.333.343 1.937.23.594.49 1.068.782 1.422.302.344.63.656.984.938.365.27.635.453.813.547.177.083.307.14.39.171-.01.084-.068.271-.172.563-.104.291-.297.729-.578 1.312-.281.573-.599 1.12-.953 1.641-.333.49-.61.875-.828 1.156a14.12 14.12 0 01-.828.922 3.37 3.37 0 01-1.047.735c-.354.166-.735.25-1.14.25-.542 0-1.188-.167-1.938-.5-.75-.334-1.453-.5-2.11-.5-.666 0-1.4.171-2.203.515-.802.344-1.442.516-1.922.516-.687 0-1.312-.256-1.875-.766-.552-.52-1.208-1.318-1.968-2.39-.75-1.084-1.37-2.36-1.86-3.829-.49-1.479-.734-2.942-.734-4.39 0-1.156.177-2.209.531-3.156.365-.959.839-1.735 1.422-2.329a6.41 6.41 0 011.984-1.39c.74-.323 1.5-.485 2.282-.485.593 0 1.338.183 2.234.547.906.354 1.505.532 1.797.532.25 0 .864-.188 1.844-.563.979-.385 1.817-.578 2.515-.578zm-.875-2.031c-.416.51-.943.932-1.578 1.265-.625.334-1.219.5-1.781.5a1.67 1.67 0 01-.328-.031 1.89 1.89 0 01-.047-.453c0-.604.13-1.203.39-1.797a5.91 5.91 0 01.97-1.547 5.523 5.523 0 011.687-1.328C14.27.771 14.917.583 15.53.562c.031.136.047.303.047.5 0 1.26-.432 2.412-1.297 3.454zm37 20.484h-4.203V9.781h-.125l-6.125 15H37.86l-6.125-15h-.125V25h-4.203V2.453h5.469l6.406 15.985h.125l6.407-15.985h5.468V25zm9.453-3.031c1.01 0 1.865-.292 2.563-.875.708-.594 1.062-1.339 1.062-2.235v-1.218l-3.53.218c-.855.063-1.517.276-1.985.641-.459.365-.688.844-.688 1.438 0 .625.235 1.12.703 1.484.47.364 1.094.547 1.875.547zm-1.5 3.297c-1.614 0-2.953-.474-4.015-1.422-1.063-.948-1.594-2.167-1.594-3.657 0-1.52.563-2.713 1.688-3.578 1.124-.864 2.734-1.359 4.828-1.484l4.218-.25v-1.11c0-.77-.255-1.374-.765-1.812-.5-.437-1.183-.656-2.047-.656-.833 0-1.516.187-2.047.562-.52.375-.839.88-.953 1.516h-4.172c.083-1.646.786-2.969 2.11-3.969 1.322-1.01 3.078-1.515 5.265-1.515 2.146 0 3.865.51 5.156 1.53 1.292 1.022 1.938 2.376 1.938 4.063V25h-4.406v-2.563h-.094c-.459.875-1.156 1.568-2.094 2.079-.938.5-1.943.75-3.016.75zm27.782-10.782H82.78c-.135-.906-.495-1.635-1.078-2.187-.573-.552-1.318-.828-2.234-.828-1.136 0-2.031.458-2.688 1.375-.646.906-.969 2.161-.969 3.765 0 1.636.323 2.907.97 3.813.656.906 1.556 1.36 2.702 1.36.907 0 1.646-.256 2.22-.766.572-.521.931-1.24 1.077-2.157h4.25c-.114 1.98-.86 3.558-2.234 4.735-1.375 1.177-3.162 1.765-5.36 1.765-2.541 0-4.552-.776-6.03-2.328-1.48-1.562-2.22-3.703-2.22-6.422 0-2.677.74-4.797 2.22-6.359 1.489-1.573 3.489-2.36 6-2.36 2.228 0 4.025.615 5.39 1.844 1.375 1.23 2.115 2.813 2.219 4.75zM119.844 25h-4.203V9.781h-.125l-6.125 15h-2.969l-6.125-15h-.125V25h-4.203V2.453h5.469l6.406 15.985h.125l6.406-15.985h5.469V25zm3.437 0V8.25h4.563V25h-4.563zm4.016-19.281c-.469.458-1.047.687-1.735.687-.687 0-1.265-.229-1.734-.687a2.25 2.25 0 01-.703-1.672c0-.667.234-1.224.703-1.672.469-.458 1.047-.688 1.734-.688.688 0 1.266.23 1.735.688.469.448.703 1.005.703 1.672a2.25 2.25 0 01-.703 1.672zm13.547 19.547c-1.209 0-2.271-.276-3.188-.828a5.293 5.293 0 01-2.062-2.313h-.094V25H131V2.453h4.562v8.703h.094c.469-1 1.151-1.776 2.047-2.328.896-.562 1.938-.844 3.125-.844 2.115 0 3.776.766 4.984 2.297 1.219 1.531 1.829 3.646 1.829 6.344 0 2.688-.605 4.802-1.813 6.344-1.208 1.531-2.87 2.297-4.984 2.297zm-1.578-13.625c-1.105 0-2 .458-2.688 1.375-.687.916-1.031 2.12-1.031 3.609 0 1.51.338 2.719 1.015 3.625.688.896 1.589 1.344 2.704 1.344 1.145 0 2.046-.443 2.703-1.328.666-.896 1-2.11 1-3.641 0-1.52-.334-2.73-1-3.625-.667-.906-1.568-1.36-2.703-1.36zM150.094 25V8.25h4.562V25h-4.562zm4.015-19.281c-.468.458-1.047.687-1.734.687s-1.266-.229-1.734-.687a2.25 2.25 0 01-.703-1.672c0-.667.234-1.224.703-1.672.468-.458 1.047-.688 1.734-.688s1.266.23 1.734.688c.469.448.703 1.005.703 1.672a2.25 2.25 0 01-.703 1.672z" fill="#1F1F1F"/></svg>