<svg width="142" height="26" viewBox="0 0 142 26" fill="none" xmlns="http://www.w3.org/2000/svg">
<path d="M14.8281 6.79688C16.9115 6.79688 18.5104 7.59896 19.625 9.20312L19.5 9.28125C19.4167 9.33333 19.3281 9.39583 19.2344 9.46875C19.1406 9.54167 19.0208 9.63542 18.875 9.75C18.7396 9.86458 18.6042 10 18.4688 10.1562C18.3438 10.3021 18.2083 10.4688 18.0625 10.6562C17.9167 10.8333 17.7812 11.0365 17.6562 11.2656C17.5417 11.4948 17.4323 11.7396 17.3281 12C17.2344 12.25 17.1562 12.5312 17.0938 12.8438C17.0417 13.1562 17.0156 13.4792 17.0156 13.8125C17.0156 14.4792 17.125 15.1042 17.3438 15.6875C17.5729 16.2708 17.8281 16.7396 18.1094 17.0938C18.401 17.4375 18.724 17.7448 19.0781 18.0156C19.4323 18.276 19.6979 18.4531 19.875 18.5469C20.0521 18.6406 20.1771 18.6979 20.25 18.7188C20.2292 18.8021 20.1719 18.9844 20.0781 19.2656C19.9844 19.5365 19.7969 19.9583 19.5156 20.5312C19.2448 21.1042 18.9375 21.6458 18.5938 22.1562C18.2708 22.625 18 23 17.7812 23.2812C17.5625 23.5521 17.2865 23.8542 16.9531 24.1875C16.6302 24.5104 16.2917 24.75 15.9375 24.9062C15.5938 25.0625 15.224 25.1406 14.8281 25.1406C14.2969 25.1406 13.6615 24.9792 12.9219 24.6562C12.1927 24.3333 11.5052 24.1719 10.8594 24.1719C10.2135 24.1719 9.5 24.3385 8.71875 24.6719C7.9375 25.0052 7.3125 25.1719 6.84375 25.1719C6.47917 25.1719 6.13021 25.099 5.79688 24.9531C5.47396 24.8073 5.14583 24.5729 4.8125 24.25C4.48958 23.9167 4.21354 23.6042 3.98438 23.3125C3.75521 23.0208 3.45312 22.6146 3.07812 22.0938C2.33854 21.0417 1.72917 19.7969 1.25 18.3594C0.78125 16.9115 0.546875 15.4792 0.546875 14.0625C0.546875 12.9271 0.71875 11.8958 1.0625 10.9688C1.41667 10.0312 1.88021 9.27083 2.45312 8.6875C3.03646 8.10417 3.68229 7.65625 4.39062 7.34375C5.10938 7.02083 5.85417 6.85938 6.625 6.85938C7.20833 6.85938 7.9375 7.03646 8.8125 7.39062C9.6875 7.73438 10.2708 7.90625 10.5625 7.90625C10.8125 7.90625 11.4167 7.72396 12.375 7.35938C13.3333 6.98438 14.151 6.79688 14.8281 6.79688ZM13.9688 4.8125C13.5625 5.3125 13.0469 5.72396 12.4219 6.04688C11.8073 6.36979 11.2292 6.53125 10.6875 6.53125C10.5729 6.53125 10.4635 6.52083 10.3594 6.5C10.3281 6.375 10.3125 6.22917 10.3125 6.0625C10.3125 5.47917 10.4375 4.89583 10.6875 4.3125C10.9479 3.71875 11.2656 3.20833 11.6406 2.78125C12.0781 2.26042 12.6302 1.82812 13.2969 1.48438C13.9635 1.14062 14.599 0.958333 15.2031 0.9375C15.2344 1.08333 15.25 1.24479 15.25 1.42188C15.25 2.65104 14.8229 3.78125 13.9688 4.8125ZM47.1875 9.59375L42.9062 25H38.4531L32.4844 2.45312H37.375L40.9219 18.7812H41.0469L45.2656 2.45312H49.25L53.4688 18.7812H53.5938L57.1562 2.45312H62.0469L56.0625 25H51.6094L47.3281 9.59375H47.1875ZM77.2344 25L75.5156 19.5312H67.5938L65.875 25H61.0312L68.8594 2.45312H74.4062L82.25 25H77.2344ZM71.5 6.76562L68.6094 16H74.5L71.6094 6.76562H71.5ZM91.6094 25H86.8906V6.34375H80.375V2.45312H98.1406V6.34375H91.6094V25ZM109.469 25.3906C106.177 25.3906 103.573 24.3542 101.656 22.2812C99.75 20.1979 98.7969 17.3438 98.7969 13.7188C98.7969 10.1042 99.7552 7.26042 101.672 5.1875C103.589 3.10417 106.188 2.0625 109.469 2.0625C111.26 2.0625 112.885 2.41667 114.344 3.125C115.812 3.83333 116.99 4.83333 117.875 6.125C118.76 7.41667 119.26 8.89062 119.375 10.5469H114.781C114.562 9.16146 113.964 8.05208 112.984 7.21875C112.016 6.38542 110.844 5.96875 109.469 5.96875C107.688 5.96875 106.266 6.66667 105.203 8.0625C104.141 9.45833 103.609 11.3385 103.609 13.7031C103.609 16.1094 104.135 18.0104 105.188 19.4062C106.24 20.7917 107.672 21.4844 109.484 21.4844C110.88 21.4844 112.052 21.099 113 20.3281C113.948 19.5573 114.547 18.5052 114.797 17.1719H119.391C119.13 19.6823 118.104 21.6823 116.312 23.1719C114.521 24.651 112.24 25.3906 109.469 25.3906ZM141.906 25H137.188V15.5H127.031V25H122.312V2.45312H127.031V11.6094H137.188V2.45312H141.906V25Z" fill="#1F1F1F"/>
</svg>
