<svg width="142" height="26" fill="none" xmlns="http://www.w3.org/2000/svg"><path d="M14.828 6.797c2.084 0 3.682.802 4.797 2.406l-.125.078a3.19 3.19 0 00-.266.188l-.359.281c-.135.115-.27.25-.406.406-.125.146-.26.313-.407.5a3.88 3.88 0 00-.406.61 9.892 9.892 0 00-.328.734c-.094.25-.172.531-.234.844a5.881 5.881 0 00-.078.969c0 .666.109 1.291.328 1.874.229.584.484 1.053.765 1.407.292.343.615.65.97.922.353.26.619.437.796.53.177.095.302.152.375.173-.02.083-.078.265-.172.547-.094.27-.281.692-.562 1.265a12.32 12.32 0 01-.922 1.625c-.323.469-.594.844-.813 1.125a11.58 11.58 0 01-.828.907 3.37 3.37 0 01-1.015.718 2.648 2.648 0 01-1.11.235c-.531 0-1.166-.162-1.906-.485-.73-.323-1.417-.484-2.063-.484-.646 0-1.359.166-2.14.5-.781.333-1.406.5-1.875.5a2.58 2.58 0 01-1.047-.219c-.323-.146-.651-.38-.984-.703a12.176 12.176 0 01-.829-.938c-.229-.291-.53-.697-.906-1.218-.74-1.052-1.349-2.297-1.828-3.735-.469-1.448-.703-2.88-.703-4.297 0-1.135.172-2.166.515-3.093.355-.938.818-1.698 1.391-2.281a6.362 6.362 0 011.938-1.344 5.396 5.396 0 012.234-.485c.583 0 1.313.177 2.188.532.874.343 1.458.515 1.75.515.25 0 .854-.182 1.812-.547.958-.375 1.776-.562 2.453-.562zm-.86-1.984a4.8 4.8 0 01-1.546 1.234c-.615.323-1.193.484-1.735.484a1.67 1.67 0 01-.328-.031 1.814 1.814 0 01-.046-.438c0-.583.124-1.166.374-1.75.26-.593.579-1.104.954-1.53.437-.522.99-.954 1.656-1.298.666-.343 1.302-.526 1.906-.546.031.145.047.307.047.484 0 1.229-.427 2.36-1.281 3.39zm33.22 4.78L42.906 25h-4.453L32.484 2.453h4.891l3.547 16.328h.125l4.219-16.328h3.984l4.219 16.328h.125l3.562-16.328h4.89L56.064 25H51.61L47.33 9.594h-.142zM77.233 25l-1.718-5.469h-7.922L65.875 25h-4.844L68.86 2.453h5.547L82.25 25h-5.016zM71.5 6.766L68.61 16h5.89l-2.89-9.234h-.11zM91.61 25h-4.72V6.344h-6.515v-3.89h17.766v3.89h-6.532V25zm17.859.39c-3.292 0-5.896-1.036-7.813-3.109-1.906-2.083-2.86-4.937-2.86-8.562 0-3.615.96-6.459 2.876-8.531 1.917-2.084 4.516-3.125 7.797-3.125 1.791 0 3.416.354 4.875 1.062 1.468.708 2.646 1.708 3.531 3 .885 1.292 1.385 2.766 1.5 4.422h-4.594c-.219-1.386-.817-2.495-1.797-3.328-.968-.834-2.14-1.25-3.515-1.25-1.781 0-3.203.698-4.266 2.093-1.062 1.396-1.594 3.277-1.594 5.641 0 2.406.526 4.307 1.579 5.703 1.052 1.386 2.484 2.078 4.296 2.078 1.396 0 2.568-.385 3.516-1.156.948-.77 1.547-1.823 1.797-3.156h4.594c-.261 2.51-1.287 4.51-3.079 6-1.791 1.479-4.072 2.219-6.843 2.219zm32.437-.39h-4.718v-9.5h-10.157V25h-4.719V2.453h4.719v9.156h10.157V2.453h4.718V25z" fill="#fff"/></svg>