<svg width="155" height="26" viewBox="0 0 155 26" fill="none" xmlns="http://www.w3.org/2000/svg">
<path d="M15.1562 6.54688C17.2917 6.54688 18.9271 7.36979 20.0625 9.01562L19.9375 9.09375C19.8542 9.15625 19.7656 9.22396 19.6719 9.29688C19.5781 9.35938 19.4583 9.45312 19.3125 9.57812C19.1667 9.69271 19.026 9.82812 18.8906 9.98438C18.7552 10.1302 18.6094 10.2969 18.4531 10.4844C18.3073 10.6719 18.1719 10.8854 18.0469 11.125C17.9219 11.3542 17.8073 11.599 17.7031 11.8594C17.6094 12.1198 17.5312 12.4115 17.4688 12.7344C17.4167 13.0469 17.3906 13.375 17.3906 13.7188C17.3906 14.4062 17.5052 15.0521 17.7344 15.6562C17.9635 16.25 18.224 16.724 18.5156 17.0781C18.8177 17.4219 19.1458 17.7344 19.5 18.0156C19.8646 18.2865 20.1354 18.4688 20.3125 18.5625C20.4896 18.6458 20.6198 18.7031 20.7031 18.7344C20.6927 18.8177 20.6354 19.0052 20.5312 19.2969C20.4271 19.5885 20.2344 20.026 19.9531 20.6094C19.6719 21.1823 19.3542 21.7292 19 22.25C18.6667 22.7396 18.3906 23.125 18.1719 23.4062C17.9531 23.6771 17.6771 23.9844 17.3438 24.3281C17.0104 24.6615 16.6615 24.9062 16.2969 25.0625C15.9427 25.2292 15.5625 25.3125 15.1562 25.3125C14.6146 25.3125 13.9688 25.1458 13.2188 24.8125C12.4688 24.4792 11.7656 24.3125 11.1094 24.3125C10.4427 24.3125 9.70833 24.4844 8.90625 24.8281C8.10417 25.1719 7.46354 25.3438 6.98438 25.3438C6.29688 25.3438 5.67188 25.0885 5.10938 24.5781C4.55729 24.0573 3.90104 23.2604 3.14062 22.1875C2.39062 21.1042 1.77083 19.8281 1.28125 18.3594C0.791667 16.8802 0.546875 15.4167 0.546875 13.9688C0.546875 12.8125 0.723958 11.7604 1.07812 10.8125C1.44271 9.85417 1.91667 9.07812 2.5 8.48438C3.09375 7.88021 3.75521 7.41667 4.48438 7.09375C5.22396 6.77083 5.98438 6.60938 6.76562 6.60938C7.35938 6.60938 8.10417 6.79167 9 7.15625C9.90625 7.51042 10.5052 7.6875 10.7969 7.6875C11.0469 7.6875 11.6615 7.5 12.6406 7.125C13.6198 6.73958 14.4583 6.54688 15.1562 6.54688ZM14.2812 4.51562C13.8646 5.02604 13.3385 5.44792 12.7031 5.78125C12.0781 6.11458 11.4844 6.28125 10.9219 6.28125C10.8073 6.28125 10.6979 6.27083 10.5938 6.25C10.5625 6.125 10.5469 5.97396 10.5469 5.79688C10.5469 5.19271 10.6771 4.59375 10.9375 4C11.1979 3.40625 11.5208 2.89062 11.9062 2.45312C12.3542 1.92188 12.9167 1.47917 13.5938 1.125C14.2708 0.770833 14.9167 0.583333 15.5312 0.5625C15.5625 0.697917 15.5781 0.864583 15.5781 1.0625C15.5781 2.32292 15.1458 3.47396 14.2812 4.51562ZM51.2812 25H47.0781V9.78125H46.9531L40.8281 24.7812H37.8594L31.7344 9.78125H31.6094V25H27.4062V2.45312H32.875L39.2812 18.4375H39.4062L45.8125 2.45312H51.2812V25ZM60.7344 21.9688C61.7448 21.9688 62.599 21.6771 63.2969 21.0938C64.0052 20.5 64.3594 19.7552 64.3594 18.8594V17.6406L60.8281 17.8594C59.974 17.9219 59.3125 18.1354 58.8438 18.5C58.3854 18.8646 58.1562 19.3438 58.1562 19.9375C58.1562 20.5625 58.3906 21.0573 58.8594 21.4219C59.3281 21.7865 59.9531 21.9688 60.7344 21.9688ZM59.2344 25.2656C57.6198 25.2656 56.2812 24.7917 55.2188 23.8438C54.1562 22.8958 53.625 21.6771 53.625 20.1875C53.625 18.6667 54.1875 17.474 55.3125 16.6094C56.4375 15.7448 58.0469 15.25 60.1406 15.125L64.3594 14.875V13.7656C64.3594 12.9948 64.1042 12.3906 63.5938 11.9531C63.0938 11.5156 62.4115 11.2969 61.5469 11.2969C60.7135 11.2969 60.0312 11.4844 59.5 11.8594C58.9792 12.2344 58.6615 12.7396 58.5469 13.375H54.375C54.4583 11.7292 55.1615 10.4062 56.4844 9.40625C57.8073 8.39583 59.5625 7.89062 61.75 7.89062C63.8958 7.89062 65.6146 8.40104 66.9062 9.42188C68.1979 10.4427 68.8438 11.7969 68.8438 13.4844V25H64.4375V22.4375H64.3438C63.8854 23.3125 63.1875 24.0052 62.25 24.5156C61.3125 25.0156 60.3073 25.2656 59.2344 25.2656ZM87.0156 14.4844H82.7812C82.6458 13.5781 82.2865 12.849 81.7031 12.2969C81.1302 11.7448 80.3854 11.4688 79.4688 11.4688C78.3333 11.4688 77.4375 11.9271 76.7812 12.8438C76.1354 13.75 75.8125 15.0052 75.8125 16.6094C75.8125 18.2448 76.1354 19.5156 76.7812 20.4219C77.4375 21.3281 78.3385 21.7812 79.4844 21.7812C80.3906 21.7812 81.1302 21.526 81.7031 21.0156C82.276 20.4948 82.6354 19.776 82.7812 18.8594H87.0312C86.9167 20.8385 86.1719 22.4167 84.7969 23.5938C83.4219 24.7708 81.6354 25.3594 79.4375 25.3594C76.8958 25.3594 74.8854 24.5833 73.4062 23.0312C71.9271 21.4688 71.1875 19.3281 71.1875 16.6094C71.1875 13.9323 71.9271 11.8125 73.4062 10.25C74.8958 8.67708 76.8958 7.89062 79.4062 7.89062C81.6354 7.89062 83.4323 8.50521 84.7969 9.73438C86.1719 10.9635 86.9115 12.5469 87.0156 14.4844ZM119.844 25H115.641V9.78125H115.516L109.391 24.7812H106.422L100.297 9.78125H100.172V25H95.9688V2.45312H101.438L107.844 18.4375H107.969L114.375 2.45312H119.844V25ZM123.281 25V8.25H127.844V25H123.281ZM127.297 5.71875C126.828 6.17708 126.25 6.40625 125.562 6.40625C124.875 6.40625 124.297 6.17708 123.828 5.71875C123.359 5.26042 123.125 4.70312 123.125 4.04688C123.125 3.38021 123.359 2.82292 123.828 2.375C124.297 1.91667 124.875 1.6875 125.562 1.6875C126.25 1.6875 126.828 1.91667 127.297 2.375C127.766 2.82292 128 3.38021 128 4.04688C128 4.70312 127.766 5.26042 127.297 5.71875ZM130.891 25V8.25H135.297V11.2344H135.391C135.849 10.1719 136.516 9.35938 137.391 8.79688C138.276 8.22396 139.354 7.9375 140.625 7.9375C142.479 7.9375 143.911 8.48958 144.922 9.59375C145.932 10.6979 146.438 12.2344 146.438 14.2031V25H141.875V15.1562C141.875 14.0521 141.615 13.2031 141.094 12.6094C140.573 12.0156 139.807 11.7188 138.797 11.7188C137.786 11.7188 136.974 12.0573 136.359 12.7344C135.755 13.4115 135.453 14.2969 135.453 15.3906V25H130.891ZM149.406 25V8.25H153.969V25H149.406ZM153.422 5.71875C152.953 6.17708 152.375 6.40625 151.688 6.40625C151 6.40625 150.422 6.17708 149.953 5.71875C149.484 5.26042 149.25 4.70312 149.25 4.04688C149.25 3.38021 149.484 2.82292 149.953 2.375C150.422 1.91667 151 1.6875 151.688 1.6875C152.375 1.6875 152.953 1.91667 153.422 2.375C153.891 2.82292 154.125 3.38021 154.125 4.04688C154.125 4.70312 153.891 5.26042 153.422 5.71875Z" fill="#EAEAEA"/>
</svg>
