<svg width="24" height="45" fill="none" xmlns="http://www.w3.org/2000/svg"><path d="M6.832 34.051A5.291 5.291 0 015.59 32.9a14.96 14.96 0 01-1.066-1.454 14.157 14.157 0 01-1.781-3.637c-.5-1.5-.743-2.938-.743-4.344 0-1.57.34-2.941 1.004-4.093a5.76 5.76 0 012.098-2.18 5.587 5.587 0 012.84-.84c.351 0 .73.051 1.132.149.289.081.64.21 1.07.371.547.21.848.34.95.371.32.117.59.168.8.168.161 0 .388-.05.645-.129.145-.05.418-.14.809-.308.386-.141.691-.262.933-.352.371-.11.73-.21 1.051-.262.38-.06.765-.075 1.148-.047a6.795 6.795 0 011.942.418c1.02.41 1.843 1.05 2.457 1.961-.26.16-.503.344-.727.55-.488.433-.903.94-1.23 1.505a5.12 5.12 0 00-.645 2.519c.016 1.082.293 2.035.84 2.86.402.61.925 1.133 1.535 1.535.313.21.582.355.84.453-.12.375-.25.738-.402 1.098a14.385 14.385 0 01-1.25 2.312c-.433.63-.773 1.098-1.031 1.41-.402.476-.789.84-1.18 1.094-.43.285-.937.437-1.453.437a3.294 3.294 0 01-1.035-.126 11.464 11.464 0 01-.856-.323 6.86 6.86 0 00-.902-.34 4.702 4.702 0 00-2.324-.004c-.313.09-.614.195-.911.324-.418.175-.695.293-.856.343-.32.094-.652.153-.988.172-.52 0-1.005-.148-1.485-.449l.013-.01zm6.855-18.46c-.68.339-1.328.484-1.972.437-.101-.65 0-1.313.269-2.04a5.448 5.448 0 011-1.68 5.324 5.324 0 011.629-1.258c.66-.34 1.289-.523 1.89-.55.078.68 0 1.348-.25 2.07a5.986 5.986 0 01-.999 1.758c-.44.522-.979.95-1.586 1.261l.02.001z" fill="#A5A5A6"/></svg>