<svg width="24" height="22" fill="none" xmlns="http://www.w3.org/2000/svg"><path fill-rule="evenodd" clip-rule="evenodd" d="M23.786 5.416a1.208 1.208 0 00-.43-.387 1.182 1.182 0 00-.557-.14H6.4L5.015 1.503A2.428 2.428 0 004.13.41 2.362 2.362 0 002.8 0H0v2.444h2.8L8.492 16.36c.091.222.245.412.442.546.197.134.429.205.666.205h9.6c.5 0 .948-.316 1.124-.792l3.6-9.778a1.244 1.244 0 00-.138-1.125zm-5.418 9.25H10.4l-3-7.333h13.668l-2.7 7.334z" fill="#fff"/><path d="M10.2 22c.994 0 1.8-.82 1.8-1.833s-.806-1.834-1.8-1.834-1.8.821-1.8 1.834c0 1.012.806 1.833 1.8 1.833zm10.2-1.833c0 1.012-.806 1.833-1.8 1.833-.995 0-1.8-.82-1.8-1.833s.805-1.834 1.8-1.834c.994 0 1.8.821 1.8 1.834z" fill="#fff"/></svg>