<svg width="36" height="30" fill="none" xmlns="http://www.w3.org/2000/svg"><g clip-path="url(#clip0)"><path d="M35.714 9.273C25.748-.01 10.248-.006.286 9.273a.905.905 0 00-.02 1.301l1.927 1.924a.909.909 0 001.26.022c8.208-7.572 20.885-7.574 29.095 0a.91.91 0 001.26-.022l1.926-1.924a.905.905 0 00-.02-1.301zM18 20.438c-1.988 0-3.6 1.622-3.6 3.625 0 2.002 1.612 3.625 3.6 3.625s3.6-1.623 3.6-3.625c0-2.003-1.612-3.625-3.6-3.625zm11.4-4.735c-6.483-5.773-16.324-5.767-22.8 0a.9.9 0 00-.032 1.311l1.937 1.925a.914.914 0 001.24.046c4.723-4.11 11.798-4.102 16.51 0a.913.913 0 001.24-.046l1.937-1.925a.9.9 0 00-.032-1.311z" fill="#BDBDBD"/></g><defs><clipPath id="clip0"><path fill="#fff" transform="translate(0 .5)" d="M0 0h36v29H0z"/></clipPath></defs></svg>