<svg width="39" height="23" fill="none" xmlns="http://www.w3.org/2000/svg"><path d="M8.624 22.469c-2.266 0-4.14-.606-5.625-1.817C1.524 19.432.753 17.864.685 15.95H4.77a3.248 3.248 0 001.26 2.183c.723.556 1.597.835 2.622.835 1.153 0 2.09-.362 2.813-1.084.732-.733 1.099-1.675 1.099-2.827 0-1.172-.362-2.13-1.085-2.872-.722-.742-1.655-1.113-2.797-1.113-.801 0-1.529.176-2.183.528a3.884 3.884 0 00-1.523 1.42H1.02L2.061.863H15.51v3.516H5.533l-.483 5.786h.088c.44-.723 1.064-1.289 1.875-1.7.82-.41 1.762-.614 2.827-.614 2.021 0 3.681.669 4.98 2.006 1.309 1.329 1.963 3.023 1.963 5.084 0 2.236-.757 4.052-2.27 5.449-1.504 1.386-3.467 2.08-5.889 2.08zm29.78-9.346c0 2.88-.83 5.142-2.49 6.782-1.65 1.64-3.945 2.461-6.885 2.461-3.164 0-5.654-.976-7.47-2.93-1.807-1.953-2.71-4.643-2.71-8.07 0-3.38.898-6.036 2.695-7.97 1.807-1.933 4.267-2.9 7.383-2.9 2.46 0 4.546.664 6.255 1.992 1.709 1.328 2.72 3.062 3.032 5.2h-4.439c-.322-1.103-.913-1.967-1.772-2.592-.85-.625-1.87-.938-3.062-.938-1.748 0-3.115.63-4.101 1.89-.986 1.26-1.48 3.013-1.48 5.259 0 2.285.513 4.087 1.538 5.405 1.036 1.318 2.437 1.977 4.204 1.977 1.446 0 2.623-.405 3.53-1.215.919-.81 1.402-1.87 1.451-3.18l.015-.336h-4.6v-3.223h8.906v2.388z" fill="#BDBDBD"/></svg>