<svg width="25" height="25" fill="none" xmlns="http://www.w3.org/2000/svg"><path d="M12.912 9.376A3.13 3.13 0 009.788 12.5a3.13 3.13 0 003.124 3.124 3.13 3.13 0 003.124-3.124 3.13 3.13 0 00-3.124-3.124zm9.37 3.124c0-1.294.012-2.576-.06-3.867-.073-1.5-.416-2.831-1.513-3.928-1.099-1.1-2.428-1.44-3.928-1.512-1.293-.073-2.575-.061-3.867-.061-1.294 0-2.576-.012-3.867.061-1.5.073-2.831.415-3.928 1.512-1.1 1.099-1.44 2.428-1.512 3.928-.072 1.294-.06 2.576-.06 3.867s-.012 2.576.06 3.867c.073 1.5.415 2.831 1.512 3.928 1.1 1.1 2.428 1.44 3.928 1.512 1.294.073 2.576.061 3.867.061 1.294 0 2.576.012 3.867-.061 1.5-.073 2.832-.415 3.928-1.512 1.1-1.099 1.44-2.428 1.512-3.928.075-1.291.061-2.573.061-3.867zm-9.37 4.807A4.8 4.8 0 018.105 12.5a4.8 4.8 0 014.807-4.807 4.8 4.8 0 014.807 4.807 4.8 4.8 0 01-4.807 4.807zm5.004-8.688a1.121 1.121 0 01-1.123-1.123c0-.621.502-1.123 1.123-1.123a1.121 1.121 0 01.794 1.917 1.121 1.121 0 01-.794.329z" fill="#B3B3B3"/></svg>