<svg width="30" height="30" fill="none" xmlns="http://www.w3.org/2000/svg"><path d="M15 11.095A3.914 3.914 0 0011.095 15 3.914 3.914 0 0015 18.905 3.914 3.914 0 0018.905 15 3.914 3.914 0 0015 11.095zM26.713 15c0-1.617.014-3.22-.076-4.834-.091-1.875-.519-3.54-1.89-4.91-1.374-1.374-3.035-1.8-4.91-1.89-1.617-.09-3.22-.076-4.834-.076-1.617 0-3.22-.015-4.834.076-1.875.09-3.54.519-4.91 1.89-1.374 1.374-1.8 3.035-1.89 4.91-.09 1.617-.076 3.22-.076 4.834 0 1.614-.015 3.22.076 4.834.09 1.875.519 3.539 1.89 4.91 1.374 1.374 3.035 1.799 4.91 1.89 1.617.09 3.22.076 4.834.076 1.617 0 3.22.014 4.834-.076 1.875-.091 3.539-.519 4.91-1.89 1.374-1.374 1.799-3.035 1.89-4.91.093-1.614.076-3.217.076-4.834zM15 21.009a6 6 0 01-6.009-6.01A6 6 0 0115 8.992 6 6 0 0121.009 15a6 6 0 01-6.01 6.009zm6.255-10.86a1.402 1.402 0 01-1.403-1.404 1.4 1.4 0 011.403-1.403 1.402 1.402 0 01.993 2.396 1.403 1.403 0 01-.993.41z" fill="#E29191"/><path d="M15 11.095A3.914 3.914 0 0011.095 15 3.914 3.914 0 0015 18.905 3.914 3.914 0 0018.905 15 3.914 3.914 0 0015 11.095zM26.713 15c0-1.617.014-3.22-.076-4.834-.091-1.875-.519-3.54-1.89-4.91-1.374-1.374-3.035-1.8-4.91-1.89-1.617-.09-3.22-.076-4.834-.076-1.617 0-3.22-.015-4.834.076-1.875.09-3.54.519-4.91 1.89-1.374 1.374-1.8 3.035-1.89 4.91-.09 1.617-.076 3.22-.076 4.834 0 1.614-.015 3.22.076 4.834.09 1.875.519 3.539 1.89 4.91 1.374 1.374 3.035 1.799 4.91 1.89 1.617.09 3.22.076 4.834.076 1.617 0 3.22.014 4.834-.076 1.875-.091 3.539-.519 4.91-1.89 1.374-1.374 1.799-3.035 1.89-4.91.093-1.614.076-3.217.076-4.834zM15 21.009a6 6 0 01-6.009-6.01A6 6 0 0115 8.992 6 6 0 0121.009 15a6 6 0 01-6.01 6.009zm6.255-10.86a1.402 1.402 0 01-1.403-1.404 1.4 1.4 0 011.403-1.403 1.402 1.402 0 01.993 2.396 1.403 1.403 0 01-.993.41z" fill="url(#paint0_linear)"/><defs><linearGradient id="paint0_linear" x1="15" y1="27" x2="3" y2="-3" gradientUnits="userSpaceOnUse"><stop stop-color="#F1DE2D"/><stop offset=".599" stop-color="#EA2FB5"/><stop offset="1" stop-color="#F32F2F"/></linearGradient></defs></svg>