<svg width="162" height="26" fill="none" xmlns="http://www.w3.org/2000/svg"><path d="M14.578 6.797c2.084 0 3.682.802 4.797 2.406l-.125.078a3.19 3.19 0 00-.266.188l-.359.281c-.135.115-.27.25-.406.406-.125.146-.26.313-.407.5a3.88 3.88 0 00-.406.61 9.892 9.892 0 00-.328.734c-.094.25-.172.531-.234.844a5.881 5.881 0 00-.078.969c0 .666.109 1.291.328 1.874.229.584.484 1.053.765 1.407.292.343.615.65.97.922.353.26.619.437.796.53.177.095.302.152.375.173-.02.083-.078.265-.172.547-.094.27-.281.692-.562 1.265a12.32 12.32 0 01-.922 1.625c-.323.469-.594.844-.813 1.125a11.58 11.58 0 01-.828.907 3.37 3.37 0 01-1.015.718 2.648 2.648 0 01-1.11.235c-.531 0-1.166-.162-1.906-.485-.73-.323-1.417-.484-2.063-.484-.645 0-1.359.166-2.14.5-.781.333-1.406.5-1.875.5a2.58 2.58 0 01-1.047-.219c-.323-.146-.651-.38-.984-.703a12.176 12.176 0 01-.829-.938c-.229-.291-.53-.697-.906-1.218-.74-1.052-1.349-2.297-1.828-3.735-.469-1.448-.703-2.88-.703-4.297 0-1.135.172-2.166.516-3.093.354-.938.817-1.698 1.39-2.281a6.362 6.362 0 011.938-1.344 5.396 5.396 0 012.234-.485c.583 0 1.313.177 2.188.532.874.343 1.458.515 1.75.515.25 0 .854-.182 1.812-.547.958-.375 1.776-.562 2.453-.562zm-.86-1.984a4.8 4.8 0 01-1.546 1.234c-.615.323-1.193.484-1.735.484a1.67 1.67 0 01-.328-.031 1.814 1.814 0 01-.046-.438c0-.583.124-1.166.374-1.75.26-.593.579-1.104.954-1.53.437-.522.99-.954 1.656-1.298.666-.343 1.302-.526 1.906-.546.031.145.047.307.047.484 0 1.229-.427 2.36-1.281 3.39zM33.469 25V8.75h2.72V25h-2.72zm1.36-18.984c-.458 0-.854-.167-1.187-.5-.334-.334-.5-.73-.5-1.188 0-.469.166-.864.5-1.187.333-.334.729-.5 1.187-.5.469 0 .87.166 1.203.5.334.323.5.718.5 1.187 0 .458-.166.854-.5 1.188a1.64 1.64 0 01-1.203.5zm5.453-3.563h8.047c2.115 0 3.844.677 5.188 2.031 1.354 1.344 2.03 3.079 2.03 5.204 0 2.135-.676 3.88-2.03 5.234-1.355 1.354-3.094 2.031-5.22 2.031h-5.202V25H40.28V2.453zm2.813 2.5v9.5h4.5c1.604 0 2.849-.416 3.734-1.25.886-.844 1.328-2.015 1.328-3.515s-.442-2.662-1.328-3.485c-.875-.833-2.12-1.25-3.734-1.25h-4.5zM58.5 25V2.453h2.719v8.89h.062a4.93 4.93 0 012-2.124c.886-.5 1.938-.75 3.157-.75 1.77 0 3.166.547 4.187 1.64 1.02 1.094 1.531 2.558 1.531 4.391V25h-2.719V15c0-1.313-.328-2.328-.984-3.047-.646-.719-1.599-1.078-2.86-1.078-1.343 0-2.41.422-3.202 1.266-.782.843-1.172 1.974-1.172 3.39V25H58.5zm23.844.281c-2.271 0-4.094-.755-5.469-2.265-1.375-1.521-2.063-3.568-2.063-6.141s.688-4.615 2.063-6.125c1.375-1.52 3.198-2.281 5.469-2.281 2.26 0 4.078.76 5.453 2.281 1.375 1.51 2.062 3.552 2.062 6.125 0 2.563-.687 4.604-2.062 6.125-1.375 1.52-3.193 2.281-5.453 2.281zm-3.485-3.984c.865 1.062 2.026 1.594 3.485 1.594 1.458 0 2.614-.526 3.469-1.578.854-1.063 1.28-2.542 1.28-4.438s-.426-3.37-1.28-4.422c-.855-1.062-2.01-1.594-3.47-1.594-1.458 0-2.619.532-3.484 1.594-.854 1.063-1.28 2.537-1.28 4.422 0 1.885.426 3.36 1.28 4.422zM92.61 25V8.75h2.563v2.594h.062a5.047 5.047 0 012.016-2.11c.875-.51 1.922-.765 3.141-.765 1.77 0 3.151.536 4.14 1.61.99 1.062 1.485 2.52 1.485 4.374V25h-2.719V14.937c0-1.322-.313-2.328-.938-3.015-.625-.698-1.557-1.047-2.796-1.047-1.282 0-2.308.417-3.079 1.25-.77.833-1.156 1.938-1.156 3.313V25H92.61zM116 10.828c-1.26 0-2.307.438-3.141 1.313-.823.864-1.276 1.979-1.359 3.343h8.828c-.031-1.375-.443-2.494-1.234-3.359-.792-.865-1.823-1.297-3.094-1.297zm4.266 9.516h2.672c-.24 1.437-.99 2.62-2.25 3.547-1.25.927-2.756 1.39-4.516 1.39-2.323 0-4.151-.75-5.484-2.25-1.334-1.5-2-3.531-2-6.093 0-2.542.666-4.589 2-6.141 1.343-1.552 3.13-2.328 5.359-2.328 2.187 0 3.917.734 5.187 2.203 1.271 1.469 1.907 3.437 1.907 5.906v1.031h-11.657v.157c0 1.562.427 2.812 1.282 3.75.854.937 2.01 1.406 3.468 1.406 1.021 0 1.891-.235 2.61-.703.718-.469 1.192-1.094 1.422-1.875zm18 4.656V5.437h-.063l-5.969 4.297V6.766l6-4.313h2.75V25h-2.718zm8.296-16.047c0-1.969.709-3.604 2.126-4.906 1.416-1.313 3.187-1.969 5.312-1.969 2.01 0 3.714.6 5.109 1.797 1.396 1.198 2.094 2.661 2.094 4.39 0 1.25-.344 2.454-1.031 3.61-.688 1.156-1.979 2.713-3.875 4.672l-5.703 5.89v.063h10.984V25h-14.875v-1.938l7.938-8.359c1.51-1.594 2.51-2.802 3-3.625.5-.823.75-1.703.75-2.64 0-1.084-.438-2.006-1.313-2.766-.864-.76-1.917-1.14-3.156-1.14-1.323 0-2.427.421-3.313 1.265-.885.844-1.328 1.896-1.328 3.156v.016h-2.719v-.016z" fill="#333"/></svg>