<svg width="30" height="30" fill="none" xmlns="http://www.w3.org/2000/svg"><path fill-rule="evenodd" clip-rule="evenodd" d="M15.356 22.702h1.6s.481-.083.721-.33c.24-.248.24-.742.24-.742s0-2.144.96-2.474c.961-.33 2.242 2.144 3.522 3.05.96.743 1.68.578 1.68.578l3.522-.082s1.84-.083.96-1.65c-.08-.082-.48-1.071-2.64-3.133-2.241-2.144-1.921-1.732.72-5.442 1.6-2.226 2.24-3.546 2.08-4.205-.16-.578-1.36-.413-1.36-.413h-4.002s-.32-.082-.48.083a.886.886 0 00-.32.412s-.64 1.732-1.44 3.216c-1.761 3.05-2.482 3.216-2.722 3.05-.64-.411-.48-1.813-.48-2.72 0-2.969.48-4.206-.88-4.535-.4-.083-.72-.165-1.84-.165-1.441 0-2.642 0-3.282.33-.48.247-.8.742-.56.742s.88.165 1.2.577c.32.742.32 1.979.32 1.979s.24 3.546-.56 3.958c-.56.33-1.28-.33-2.881-3.134-.8-1.401-1.44-3.05-1.44-3.05s-.08-.33-.32-.495c-.241-.165-.641-.248-.641-.248H3.27s-.56 0-.8.248c-.16.247 0 .66 0 .66s2.961 7.09 6.323 10.719c3.12 3.463 6.562 3.216 6.562 3.216z" fill="#366DA0"/></svg>