<svg width="25" height="25" fill="none" xmlns="http://www.w3.org/2000/svg"><path fill-rule="evenodd" clip-rule="evenodd" d="M13.197 18.661h1.28s.385-.066.577-.264c.192-.197.192-.593.192-.593s0-1.715.768-1.98c.768-.263 1.793 1.716 2.817 2.441.768.594 1.345.462 1.345.462l2.817-.066s1.472-.066.768-1.319c-.064-.066-.384-.858-2.113-2.507-1.792-1.715-1.536-1.385.576-4.353 1.281-1.782 1.793-2.837 1.665-3.365-.128-.461-1.088-.33-1.088-.33H19.6s-.257-.065-.385.066a.71.71 0 00-.256.33s-.512 1.386-1.152 2.573c-1.409 2.44-1.985 2.573-2.177 2.44-.512-.33-.384-1.45-.384-2.176 0-2.375.384-3.364-.705-3.628-.32-.066-.576-.132-1.472-.132-1.153 0-2.113 0-2.625.264-.384.198-.64.593-.448.593s.704.132.96.462c.256.594.256 1.583.256 1.583s.192 2.837-.448 3.167c-.448.263-1.024-.264-2.305-2.507-.64-1.122-1.152-2.44-1.152-2.44s-.064-.265-.257-.397c-.192-.132-.512-.198-.512-.198H3.53s-.448 0-.64.198c-.128.198 0 .528 0 .528s2.369 5.673 5.058 8.576c2.497 2.77 5.25 2.572 5.25 2.572z" fill="#B3B3B3"/></svg>