<svg width="70" height="70" fill="none" xmlns="http://www.w3.org/2000/svg"><path d="M70 39.871c0-9.562-3.856-18.239-10.092-24.562a1.76 1.76 0 00-.16-.187 1.701 1.701 0 00-.186-.16c-6.323-6.236-15-10.09-24.562-10.09-9.561 0-18.239 3.855-24.562 10.09-.065.05-.128.101-.187.16-.059.06-.11.122-.16.187C3.857 21.632 0 30.31 0 39.871c0 9.348 3.64 18.135 10.249 24.746l.002.003.002.001.003.003c.336.336.777.504 1.217.504.44 0 .881-.168 1.217-.504.029-.029.055-.06.081-.09l5.304-5.304a1.721 1.721 0 00-2.434-2.435l-4.14 4.14A31.292 31.292 0 013.49 41.592h5.854a1.721 1.721 0 100-3.442H3.49c.4-7.407 3.367-14.142 8.023-19.331l4.128 4.128c.336.336.777.504 1.217.504a1.721 1.721 0 001.217-2.938l-4.128-4.13c5.19-4.656 11.925-7.622 19.332-8.022v5.854a1.721 1.721 0 103.442 0V8.361c7.407.4 14.142 3.367 19.332 8.023l-4.129 4.128a1.721 1.721 0 002.435 2.435l4.128-4.128c4.656 5.19 7.623 11.924 8.023 19.33h-5.854a1.721 1.721 0 100 3.443h5.854a31.292 31.292 0 01-8.012 19.343l-4.14-4.14a1.722 1.722 0 00-2.434 2.435l5.39 5.39a1.716 1.716 0 001.865.378 1.72 1.72 0 00.57-.378C66.359 58.009 70 49.22 70 39.87z" fill="#1F1F1F"/><path d="M42.908 20.132a1.72 1.72 0 00-2.238.957l-4.974 12.417a6.382 6.382 0 00-6.407 3.46c-1.15 2.258-.856 4.956.787 7.217.168.231.38.443.612.612 1.335.97 2.826 1.483 4.312 1.483a6.382 6.382 0 005.712-3.502c1.15-2.258.855-4.956-.787-7.215a2.8 2.8 0 00-.613-.614 8.386 8.386 0 00-.382-.257l4.936-12.32a1.721 1.721 0 00-.958-2.238zm-5.264 21.082A2.955 2.955 0 0135 42.836c-.735 0-1.475-.257-2.2-.764-.827-1.186-.99-2.473-.444-3.543.51-1 1.523-1.622 2.644-1.622.358 0 .716.062 1.074.182l.034.016c.038.015.076.027.114.04.328.125.655.299.979.525.826 1.186.988 2.473.443 3.544z" fill="#1F1F1F"/></svg>