<svg width="131" height="38" viewBox="0 0 131 38" fill="none" xmlns="http://www.w3.org/2000/svg">
<path d="M18.8281 11.7969C20.9115 11.7969 22.5104 12.599 23.625 14.2031L23.5 14.2812C23.4167 14.3333 23.3281 14.3958 23.2344 14.4688C23.1406 14.5417 23.0208 14.6354 22.875 14.75C22.7396 14.8646 22.6042 15 22.4688 15.1562C22.3438 15.3021 22.2083 15.4688 22.0625 15.6562C21.9167 15.8333 21.7812 16.0365 21.6562 16.2656C21.5417 16.4948 21.4323 16.7396 21.3281 17C21.2344 17.25 21.1562 17.5312 21.0938 17.8438C21.0417 18.1562 21.0156 18.4792 21.0156 18.8125C21.0156 19.4792 21.125 20.1042 21.3438 20.6875C21.5729 21.2708 21.8281 21.7396 22.1094 22.0938C22.401 22.4375 22.724 22.7448 23.0781 23.0156C23.4323 23.276 23.6979 23.4531 23.875 23.5469C24.0521 23.6406 24.1771 23.6979 24.25 23.7188C24.2292 23.8021 24.1719 23.9844 24.0781 24.2656C23.9844 24.5365 23.7969 24.9583 23.5156 25.5312C23.2448 26.1042 22.9375 26.6458 22.5938 27.1562C22.2708 27.625 22 28 21.7812 28.2812C21.5625 28.5521 21.2865 28.8542 20.9531 29.1875C20.6302 29.5104 20.2917 29.75 19.9375 29.9062C19.5938 30.0625 19.224 30.1406 18.8281 30.1406C18.2969 30.1406 17.6615 29.9792 16.9219 29.6562C16.1927 29.3333 15.5052 29.1719 14.8594 29.1719C14.2135 29.1719 13.5 29.3385 12.7188 29.6719C11.9375 30.0052 11.3125 30.1719 10.8438 30.1719C10.4792 30.1719 10.1302 30.099 9.79688 29.9531C9.47396 29.8073 9.14583 29.5729 8.8125 29.25C8.48958 28.9167 8.21354 28.6042 7.98438 28.3125C7.75521 28.0208 7.45312 27.6146 7.07812 27.0938C6.33854 26.0417 5.72917 24.7969 5.25 23.3594C4.78125 21.9115 4.54688 20.4792 4.54688 19.0625C4.54688 17.9271 4.71875 16.8958 5.0625 15.9688C5.41667 15.0312 5.88021 14.2708 6.45312 13.6875C7.03646 13.1042 7.68229 12.6562 8.39062 12.3438C9.10938 12.0208 9.85417 11.8594 10.625 11.8594C11.2083 11.8594 11.9375 12.0365 12.8125 12.3906C13.6875 12.7344 14.2708 12.9062 14.5625 12.9062C14.8125 12.9062 15.4167 12.724 16.375 12.3594C17.3333 11.9844 18.151 11.7969 18.8281 11.7969ZM17.9688 9.8125C17.5625 10.3125 17.0469 10.724 16.4219 11.0469C15.8073 11.3698 15.2292 11.5312 14.6875 11.5312C14.5729 11.5312 14.4635 11.5208 14.3594 11.5C14.3281 11.375 14.3125 11.2292 14.3125 11.0625C14.3125 10.4792 14.4375 9.89583 14.6875 9.3125C14.9479 8.71875 15.2656 8.20833 15.6406 7.78125C16.0781 7.26042 16.6302 6.82812 17.2969 6.48438C17.9635 6.14062 18.599 5.95833 19.2031 5.9375C19.2344 6.08333 19.25 6.24479 19.25 6.42188C19.25 7.65104 18.8229 8.78125 17.9688 9.8125ZM49.0781 30H42.4531V12.7188H36.5156V7.45312H55.0156V12.7188H49.0781V30ZM71.625 30H63.0312L56.1875 7.45312H63.8125L67.4219 23.7188H67.5469L71.1562 7.45312H78.4688L71.625 30Z" fill="white"/>
<path d="M97.1562 30V26.6562H86.0625V21.1719C87.9688 17.4427 90.6979 12.8698 94.25 7.45312H103.406V21.5781H106.094V26.6562H103.406V30H97.1562ZM91.5625 21.6562V21.8438H97.3438V11.7969H97.2188C95.9062 13.8177 94.849 15.5156 94.0469 16.8906C93.2448 18.2552 92.4167 19.8438 91.5625 21.6562ZM115.312 30H108.688V7.45312H115.312V17.0156H115.438L122.406 7.45312H129.359L121.938 17.4688L129.703 30H122L117.078 21.7188L115.312 24.0938V30Z" fill="url(#paint0_linear)"/>
<defs>
<linearGradient id="paint0_linear" x1="65.5" y1="0" x2="65.5" y2="38" gradientUnits="userSpaceOnUse">
<stop stop-color="#FC60FF"/>
<stop offset="1" stop-color="#1FB1A9"/>
</linearGradient>
</defs>
</svg>
