<svg width="70" height="70" viewBox="0 0 70 70" fill="none" xmlns="http://www.w3.org/2000/svg">
<path d="M70 39.8711C70 30.3093 66.1445 21.6323 59.9081 15.3091C59.8594 15.2444 59.8075 15.1811 59.7486 15.1221C59.6896 15.0631 59.6265 15.0112 59.5617 14.9628C53.2386 8.72637 44.5615 4.87109 35 4.87109C25.4385 4.87109 16.7614 8.7266 10.438 14.9628C10.3733 15.0115 10.3102 15.0633 10.2512 15.1221C10.1922 15.1811 10.1404 15.2442 10.0917 15.3091C3.85551 21.6323 0 30.3093 0 39.8711C0 49.2187 3.63977 58.0064 10.2487 64.6169C10.2496 64.6178 10.2505 64.6189 10.2514 64.6199C10.2521 64.6203 10.2526 64.621 10.2533 64.6215C10.2542 64.6224 10.2551 64.6233 10.256 64.6242C10.592 64.9602 11.0325 65.128 11.4729 65.128C11.9135 65.128 12.3542 64.96 12.6902 64.6238C12.7189 64.5951 12.7448 64.5646 12.771 64.5343L18.0754 59.2296C18.7476 58.5572 18.7476 57.4675 18.0754 56.7952C17.4031 56.1232 16.3132 56.1232 15.6412 56.7952L11.5018 60.9347C6.67502 55.5635 3.87479 48.8035 3.48967 41.5924H9.34374C10.2944 41.5924 11.065 40.8219 11.065 39.8711C11.065 38.9202 10.2944 38.1498 9.34374 38.1498H3.49013C3.89039 30.7431 6.85656 24.0079 11.513 18.8185L15.6412 22.9467C15.9772 23.2827 16.4179 23.4507 16.8583 23.4507C17.2987 23.4507 17.7394 23.2827 18.0754 22.9467C18.7476 22.2742 18.7476 21.1845 18.0754 20.5123L13.9474 16.3839C19.1371 11.7274 25.872 8.76126 33.2787 8.36122V14.2151C33.2787 15.1659 34.0494 15.9364 35 15.9364C35.9506 15.9364 36.7213 15.1659 36.7213 14.2151V8.36122C44.128 8.76126 50.8629 11.7277 56.0526 16.3841L51.9244 20.5123C51.2522 21.1848 51.2522 22.2745 51.9244 22.9467C52.2604 23.2827 52.701 23.4507 53.1415 23.4507C53.5819 23.4507 54.0226 23.2827 54.3586 22.9467L58.4867 18.8185C63.1432 24.0082 66.1096 30.7431 66.5096 38.1498H60.6558C59.7052 38.1498 58.9345 38.9202 58.9345 39.8711C58.9345 40.8219 59.7052 41.5924 60.6558 41.5924H66.5099C66.1248 48.8035 63.3248 55.5637 58.498 60.9349L54.3586 56.7952C53.6866 56.1232 52.5966 56.1232 51.9244 56.7952C51.2522 57.4677 51.2522 58.5574 51.9244 59.2296L57.3144 64.6196C57.6504 64.9556 58.091 65.1236 58.5315 65.1236C58.7516 65.1236 58.9719 65.0816 59.1791 64.9976C59.3864 64.9136 59.5806 64.7876 59.7488 64.6196C66.3593 58.0089 70 49.2196 70 39.8711Z" fill="#1F1F1F"/>
<path d="M42.9079 20.1318C42.025 19.7781 41.0234 20.2069 40.67 21.0895L35.6959 33.5059C35.4641 33.4812 35.2323 33.4642 35.0002 33.4642C32.5775 33.4642 30.3892 34.8061 29.2887 36.9662C28.1384 39.2244 28.4331 41.9225 30.0764 44.1831C30.2444 44.4142 30.4555 44.6256 30.6882 44.7948C32.0233 45.7654 33.5144 46.2783 35.0002 46.2783C37.4229 46.2783 39.6115 44.9364 40.7118 42.7762C41.8621 40.5181 41.5674 37.8202 39.9252 35.5612C39.7572 35.3294 39.5456 35.1173 39.3122 34.9475C39.1867 34.8561 39.0584 34.7728 38.9301 34.6897L43.8657 22.3695C44.2191 21.4873 43.7904 20.4853 42.9079 20.1318ZM37.6439 41.2135C37.1342 42.2139 36.1211 42.8355 35 42.8355C34.2647 42.8355 33.5245 42.5786 32.7992 42.0719C31.973 40.8856 31.8108 39.5994 32.3563 38.5287C32.8658 37.5283 33.8788 36.9068 35.0002 36.9068C35.3578 36.9068 35.7163 36.9688 36.0739 37.0893C36.0856 37.0941 36.0964 37.1003 36.1083 37.1051C36.1459 37.12 36.1838 37.1322 36.2217 37.1443C36.5499 37.2703 36.8767 37.4438 37.2008 37.6701C38.0267 38.8565 38.1892 40.1429 37.6439 41.2135Z" fill="#1F1F1F"/>
</svg>
