<svg width="95" height="26" viewBox="0 0 95 26" fill="none" xmlns="http://www.w3.org/2000/svg">
<path d="M15.1562 6.54688C17.2917 6.54688 18.9271 7.36979 20.0625 9.01562L19.9375 9.09375C19.8542 9.15625 19.7656 9.22396 19.6719 9.29688C19.5781 9.35938 19.4583 9.45312 19.3125 9.57812C19.1667 9.69271 19.026 9.82812 18.8906 9.98438C18.7552 10.1302 18.6094 10.2969 18.4531 10.4844C18.3073 10.6719 18.1719 10.8854 18.0469 11.125C17.9219 11.3542 17.8073 11.599 17.7031 11.8594C17.6094 12.1198 17.5312 12.4115 17.4688 12.7344C17.4167 13.0469 17.3906 13.375 17.3906 13.7188C17.3906 14.4062 17.5052 15.0521 17.7344 15.6562C17.9635 16.25 18.224 16.724 18.5156 17.0781C18.8177 17.4219 19.1458 17.7344 19.5 18.0156C19.8646 18.2865 20.1354 18.4688 20.3125 18.5625C20.4896 18.6458 20.6198 18.7031 20.7031 18.7344C20.6927 18.8177 20.6354 19.0052 20.5312 19.2969C20.4271 19.5885 20.2344 20.026 19.9531 20.6094C19.6719 21.1823 19.3542 21.7292 19 22.25C18.6667 22.7396 18.3906 23.125 18.1719 23.4062C17.9531 23.6771 17.6771 23.9844 17.3438 24.3281C17.0104 24.6615 16.6615 24.9062 16.2969 25.0625C15.9427 25.2292 15.5625 25.3125 15.1562 25.3125C14.6146 25.3125 13.9688 25.1458 13.2188 24.8125C12.4688 24.4792 11.7656 24.3125 11.1094 24.3125C10.4427 24.3125 9.70833 24.4844 8.90625 24.8281C8.10417 25.1719 7.46354 25.3438 6.98438 25.3438C6.29688 25.3438 5.67188 25.0885 5.10938 24.5781C4.55729 24.0573 3.90104 23.2604 3.14062 22.1875C2.39062 21.1042 1.77083 19.8281 1.28125 18.3594C0.791667 16.8802 0.546875 15.4167 0.546875 13.9688C0.546875 12.8125 0.723958 11.7604 1.07812 10.8125C1.44271 9.85417 1.91667 9.07812 2.5 8.48438C3.09375 7.88021 3.75521 7.41667 4.48438 7.09375C5.22396 6.77083 5.98438 6.60938 6.76562 6.60938C7.35938 6.60938 8.10417 6.79167 9 7.15625C9.90625 7.51042 10.5052 7.6875 10.7969 7.6875C11.0469 7.6875 11.6615 7.5 12.6406 7.125C13.6198 6.73958 14.4583 6.54688 15.1562 6.54688ZM14.2812 4.51562C13.8646 5.02604 13.3385 5.44792 12.7031 5.78125C12.0781 6.11458 11.4844 6.28125 10.9219 6.28125C10.8073 6.28125 10.6979 6.27083 10.5938 6.25C10.5625 6.125 10.5469 5.97396 10.5469 5.79688C10.5469 5.19271 10.6771 4.59375 10.9375 4C11.1979 3.40625 11.5208 2.89062 11.9062 2.45312C12.3542 1.92188 12.9167 1.47917 13.5938 1.125C14.2708 0.770833 14.9167 0.583333 15.5312 0.5625C15.5625 0.697917 15.5781 0.864583 15.5781 1.0625C15.5781 2.32292 15.1458 3.47396 14.2812 4.51562ZM27.0938 25V8.25H31.6562V25H27.0938ZM31.1094 5.71875C30.6406 6.17708 30.0625 6.40625 29.375 6.40625C28.6875 6.40625 28.1094 6.17708 27.6406 5.71875C27.1719 5.26042 26.9375 4.70312 26.9375 4.04688C26.9375 3.38021 27.1719 2.82292 27.6406 2.375C28.1094 1.91667 28.6875 1.6875 29.375 1.6875C30.0625 1.6875 30.6406 1.91667 31.1094 2.375C31.5781 2.82292 31.8125 3.38021 31.8125 4.04688C31.8125 4.70312 31.5781 5.26042 31.1094 5.71875ZM58.9688 25H54.7656V9.78125H54.6406L48.5156 24.7812H45.5469L39.4219 9.78125H39.2969V25H35.0938V2.45312H40.5625L46.9688 18.4375H47.0938L53.5 2.45312H58.9688V25ZM68.4219 21.9688C69.4323 21.9688 70.2865 21.6771 70.9844 21.0938C71.6927 20.5 72.0469 19.7552 72.0469 18.8594V17.6406L68.5156 17.8594C67.6615 17.9219 67 18.1354 66.5312 18.5C66.0729 18.8646 65.8438 19.3438 65.8438 19.9375C65.8438 20.5625 66.0781 21.0573 66.5469 21.4219C67.0156 21.7865 67.6406 21.9688 68.4219 21.9688ZM66.9219 25.2656C65.3073 25.2656 63.9688 24.7917 62.9062 23.8438C61.8438 22.8958 61.3125 21.6771 61.3125 20.1875C61.3125 18.6667 61.875 17.474 63 16.6094C64.125 15.7448 65.7344 15.25 67.8281 15.125L72.0469 14.875V13.7656C72.0469 12.9948 71.7917 12.3906 71.2812 11.9531C70.7812 11.5156 70.099 11.2969 69.2344 11.2969C68.401 11.2969 67.7188 11.4844 67.1875 11.8594C66.6667 12.2344 66.349 12.7396 66.2344 13.375H62.0625C62.1458 11.7292 62.849 10.4062 64.1719 9.40625C65.4948 8.39583 67.25 7.89062 69.4375 7.89062C71.5833 7.89062 73.3021 8.40104 74.5938 9.42188C75.8854 10.4427 76.5312 11.7969 76.5312 13.4844V25H72.125V22.4375H72.0312C71.5729 23.3125 70.875 24.0052 69.9375 24.5156C69 25.0156 67.9948 25.2656 66.9219 25.2656ZM94.7031 14.4844H90.4688C90.3333 13.5781 89.974 12.849 89.3906 12.2969C88.8177 11.7448 88.0729 11.4688 87.1562 11.4688C86.0208 11.4688 85.125 11.9271 84.4688 12.8438C83.8229 13.75 83.5 15.0052 83.5 16.6094C83.5 18.2448 83.8229 19.5156 84.4688 20.4219C85.125 21.3281 86.026 21.7812 87.1719 21.7812C88.0781 21.7812 88.8177 21.526 89.3906 21.0156C89.9635 20.4948 90.3229 19.776 90.4688 18.8594H94.7188C94.6042 20.8385 93.8594 22.4167 92.4844 23.5938C91.1094 24.7708 89.3229 25.3594 87.125 25.3594C84.5833 25.3594 82.5729 24.5833 81.0938 23.0312C79.6146 21.4688 78.875 19.3281 78.875 16.6094C78.875 13.9323 79.6146 11.8125 81.0938 10.25C82.5833 8.67708 84.5833 7.89062 87.0938 7.89062C89.3229 7.89062 91.1198 8.50521 92.4844 9.73438C93.8594 10.9635 94.599 12.5469 94.7031 14.4844Z" fill="#1F1F1F"/>
</svg>
