<svg width="120" height="120" viewBox="0 0 120 120" fill="none" xmlns="http://www.w3.org/2000/svg">
<rect width="120" height="120" rx="9.33333" fill="#F2F2F2"/>
<path d="M45.6295 73L43.5527 66.3919H33.9804L31.9036 73H26.0507L35.5097 45.7559H42.2122L51.69 73H45.6295ZM38.7004 50.9668L35.2076 62.125H42.3254L38.8326 50.9668H38.7004ZM59.1477 73V50.9857H59.0344L52.0865 55.7812V50.6458L59.1288 45.7559H64.7929V73H59.1477ZM77.537 61.1055V56.9896H80.8411C82.1375 56.9896 83.1885 56.6372 83.9941 55.9323C84.7996 55.2274 85.2024 54.3149 85.2024 53.1947C85.2024 52.0744 84.8185 51.1871 84.0507 50.5326C83.2829 49.8655 82.2004 49.5319 80.8033 49.5319C79.4817 49.5319 78.4118 49.8906 77.5937 50.6081C76.7755 51.3255 76.3287 52.2821 76.2532 53.4779H71.0045C71.1052 50.9479 72.0681 48.9277 73.8931 47.4173C75.7182 45.9069 78.1034 45.1517 81.0487 45.1517C83.8934 45.1517 86.1905 45.8188 87.94 47.153C89.7022 48.4872 90.5833 50.2431 90.5833 52.4206C90.5833 54.0694 90.0672 55.4666 89.0351 56.612C88.003 57.7574 86.6436 58.4811 84.957 58.7832V58.8965C87.0086 59.0727 88.6323 59.7461 89.828 60.9167C91.0364 62.0747 91.6405 63.5914 91.6405 65.4668C91.6405 67.8961 90.6399 69.8596 88.6386 71.3574C86.6499 72.8553 84.0759 73.6042 80.9166 73.6042C77.858 73.6042 75.3847 72.8364 73.4967 71.3008C71.6212 69.7652 70.6143 67.7324 70.4758 65.2025H75.9322C76.0203 66.3605 76.5112 67.2856 77.4049 67.9779C78.3111 68.6701 79.5069 69.0163 80.9921 69.0163C82.4144 69.0163 83.5787 68.6513 84.4849 67.9212C85.3912 67.1912 85.8443 66.2535 85.8443 65.1081C85.8443 63.862 85.4038 62.8865 84.5227 62.1816C83.6416 61.4642 82.4333 61.1055 80.8977 61.1055H77.537Z" fill="#1F1F1F"/>
<rect x="6.66675" y="6.66675" width="106.667" height="106.667" rx="5.33333" stroke="#1F1F1F" stroke-width="4"/>
</svg>
