<svg width="57" height="25" viewBox="0 0 57 25" fill="none" xmlns="http://www.w3.org/2000/svg">
<path d="M14.6948 6.42627C16.703 6.42627 18.2469 7.19824 19.3267 8.74219L19.2056 8.83301C19.1248 8.88346 19.0391 8.94401 18.9482 9.01465C18.8675 9.0752 18.7565 9.16097 18.6152 9.27197C18.484 9.38298 18.3529 9.51416 18.2217 9.66553C18.0905 9.8068 17.9543 9.96826 17.813 10.1499C17.6717 10.3215 17.5405 10.5182 17.4194 10.7402C17.3084 10.9521 17.2075 11.1842 17.1167 11.4365C17.0259 11.6787 16.9502 11.9512 16.8896 12.2539C16.8392 12.5566 16.814 12.8695 16.814 13.1924C16.814 13.8382 16.9199 14.4437 17.1318 15.0088C17.3538 15.5739 17.6011 16.0229 17.8735 16.356C18.1561 16.6789 18.4639 16.9715 18.7969 17.2339C19.14 17.4963 19.3973 17.6729 19.5688 17.7637C19.7404 17.8444 19.8615 17.8949 19.9321 17.915C19.9119 17.9958 19.8564 18.1724 19.7656 18.4448C19.6748 18.7072 19.4932 19.1159 19.2207 19.6709C18.9583 20.2259 18.6606 20.7456 18.3276 21.23C18.0754 21.5933 17.8685 21.8809 17.707 22.0928C17.5456 22.3047 17.3337 22.557 17.0713 22.8496C16.819 23.1423 16.5819 23.3693 16.3599 23.5308C16.1479 23.6821 15.8906 23.8184 15.5879 23.9395C15.2952 24.0505 14.9976 24.106 14.6948 24.106C14.1802 24.106 13.5697 23.9546 12.8633 23.6519C12.167 23.339 11.506 23.1826 10.8804 23.1826C10.2547 23.1826 9.56348 23.3441 8.80664 23.667C8.0498 23.9798 7.44434 24.1362 6.99023 24.1362C6.33431 24.1362 5.74398 23.894 5.21924 23.4097C4.6945 22.9253 4.07894 22.1785 3.37256 21.1694C2.65609 20.1603 2.06576 18.9595 1.60156 17.5669C1.14746 16.1743 0.92041 14.7969 0.92041 13.4346C0.92041 12.3447 1.08691 11.3507 1.41992 10.4526C1.76302 9.54443 2.21208 8.80778 2.76709 8.24268C3.3221 7.67757 3.94271 7.24365 4.62891 6.94092C5.3252 6.63818 6.04167 6.48682 6.77832 6.48682C7.34342 6.48682 8.0498 6.65837 8.89746 7.00146C9.74512 7.33447 10.3102 7.50098 10.5928 7.50098C10.8249 7.50098 11.4001 7.32438 12.3184 6.97119C13.2467 6.60791 14.0389 6.42627 14.6948 6.42627ZM13.8774 4.50391C13.4839 4.98828 12.9844 5.38688 12.3789 5.69971C11.7835 6.01253 11.2235 6.16895 10.6987 6.16895C10.5978 6.16895 10.4969 6.15885 10.396 6.13867C10.3657 6.01758 10.3506 5.8763 10.3506 5.71484C10.3506 5.14974 10.4717 4.58464 10.7139 4.01953C10.9561 3.45443 11.2588 2.96501 11.6221 2.55127C12.0459 2.0568 12.5757 1.64307 13.2114 1.31006C13.8573 0.977051 14.4728 0.800456 15.0581 0.780273C15.0884 0.911458 15.1035 1.06787 15.1035 1.24951C15.1035 2.43018 14.6948 3.51497 13.8774 4.50391ZM45.6826 24H42.2676V11.6348H42.166L37.1895 23.8223H34.7773L29.8008 11.6348H29.6992V24H26.2842V5.68066H30.7275L35.9326 18.668H36.0342L41.2393 5.68066H45.6826V24ZM53.1602 24V9.19727H53.084L48.4121 12.4219V8.96875L53.1475 5.68066H56.9561V24H53.1602Z" fill="url(#paint0_linear)"/>
<defs>
<linearGradient id="paint0_linear" x1="150.034" y1="-9" x2="150.034" y2="34" gradientUnits="userSpaceOnUse">
<stop stop-color="#FF5F99"/>
<stop offset="1" stop-color="#49B6FF"/>
</linearGradient>
</defs>
</svg>
